<svg width="30" height="26" viewBox="0 0 30 26" fill="none" xmlns="http://www.w3.org/2000/svg">
<path d="M10 9.66667H20M10 9.66667V16.3333M10 9.66667L6 6M20 9.66667V16.3333M20 9.66667L24 6M20 16.3333H10M20 16.3333L24 20M10 16.3333L6 20M29 5C29 7.20914 27.2091 9 25 9C22.7909 9 21 7.20914 21 5C21 2.79086 22.7909 1 25 1C27.2091 1 29 2.79086 29 5ZM9 5C9 7.20914 7.20914 9 5 9C2.79086 9 1 7.20914 1 5C1 2.79086 2.79086 1 5 1C7.20914 1 9 2.79086 9 5ZM9 21C9 23.2091 7.20914 25 5 25C2.79086 25 1 23.2091 1 21C1 18.7909 2.79086 17 5 17C7.20914 17 9 18.7909 9 21ZM29 21C29 23.2091 27.2091 25 25 25C22.7909 25 21 23.2091 21 21C21 18.7909 22.7909 17 25 17C27.2091 17 29 18.7909 29 21Z" stroke="#D7A888" stroke-width="2" stroke-linecap="round"/>
</svg>
