<svg width="24" height="24" viewBox="0 0 24 24" fill="none" xmlns="http://www.w3.org/2000/svg">
<path d="M4.80078 19.8V15.576M4.80078 15.576V11.856C4.80078 10.8619 5.60667 10.056 6.60078 10.056V10.056M4.80078 15.576H19.2008M19.2008 15.576V19.8M19.2008 15.576V11.856C19.2008 10.8619 18.3949 10.056 17.4008 10.056V10.056M8.40078 12V11.056C8.40078 10.5037 7.95307 10.056 7.40078 10.056H6.60078M15.6008 12V11.056C15.6008 10.5037 16.0485 10.056 16.6008 10.056H17.4008M6.60078 10.056V6.20001C6.60078 5.09544 7.49621 4.20001 8.60078 4.20001H15.4008C16.5053 4.20001 17.4008 5.09544 17.4008 6.20001V10.056" stroke="#BA794D" stroke-linecap="round" stroke-linejoin="round"/>
</svg>
