<svg width="22" height="22" viewBox="0 0 22 22" fill="none" xmlns="http://www.w3.org/2000/svg">
<path d="M20.5998 15.7749V18.6653C20.6009 18.9336 20.5458 19.1992 20.4381 19.4451C20.3304 19.6909 20.1724 19.9116 19.9743 20.093C19.7762 20.2744 19.5423 20.4125 19.2876 20.4985C19.0329 20.5844 18.7631 20.6164 18.4953 20.5922C15.5247 20.2701 12.6712 19.257 10.1641 17.6344C7.83164 16.1552 5.85408 14.1815 4.37191 11.8536C2.74042 9.34017 1.7251 6.4785 1.40823 3.50046C1.3841 3.23403 1.41583 2.96551 1.50138 2.71199C1.58694 2.45847 1.72445 2.2255 1.90517 2.02793C2.08588 1.83035 2.30583 1.6725 2.55102 1.56441C2.79621 1.45632 3.06127 1.40037 3.32931 1.40012H6.22543C6.69393 1.39552 7.14812 1.56109 7.50335 1.86598C7.85857 2.17087 8.0906 2.59427 8.15617 3.05727C8.27841 3.98225 8.5051 4.89046 8.83193 5.76458C8.96181 6.10943 8.98992 6.4842 8.91293 6.8445C8.83593 7.2048 8.65706 7.53553 8.39751 7.79748L7.17149 9.02107C8.54575 11.4331 10.5469 13.4303 12.9637 14.8018L14.1897 13.5782C14.4522 13.3192 14.7836 13.1407 15.1446 13.0638C15.5056 12.987 15.8811 13.015 16.2267 13.1447C17.1025 13.4709 18.0125 13.6971 18.9394 13.8191C19.4083 13.8851 19.8366 14.1209 20.1427 14.4815C20.4489 14.8421 20.6115 15.3024 20.5998 15.7749Z" stroke="#061022" stroke-width="1.5" stroke-linecap="round" stroke-linejoin="round"/>
</svg>
