<svg width="20" height="20" viewBox="0 0 20 20" fill="none" xmlns="http://www.w3.org/2000/svg">
<path d="M10.5824 12.0406C10.1386 12.1748 9.66202 12.1507 9.23403 11.9726C8.96066 11.8592 8.71582 11.6867 8.51715 11.4673C8.31847 11.248 8.1709 10.9874 8.08505 10.7041C7.9992 10.4209 7.97721 10.1222 8.02067 9.82947C8.06413 9.53674 8.17195 9.25729 8.33637 9.01123C8.5008 8.76517 8.71773 8.55863 8.97156 8.40648C9.22538 8.25432 9.50979 8.16033 9.8043 8.13129C10.0988 8.10224 10.3961 8.13885 10.6748 8.23848C10.9534 8.33812 11.2065 8.4983 11.4158 8.70749C11.7442 9.03475 11.9488 9.46586 11.9946 9.92719C12.0404 10.3885 11.9247 10.8514 11.6671 11.2369C11.4095 11.6224 11.0261 11.9064 10.5824 12.0406Z" fill="#16223B"/>
<path fill-rule="evenodd" clip-rule="evenodd" d="M10.0004 5.20404C11.6024 5.20404 11.7922 5.21004 12.4249 5.23895C13.0102 5.26568 13.3277 5.36331 13.5393 5.44568C13.7999 5.54179 14.0356 5.69499 14.2293 5.89404C14.4393 6.10404 14.5686 6.30422 14.6777 6.58404C14.76 6.79568 14.8577 7.11313 14.8844 7.6984C14.9133 8.33113 14.9193 8.52095 14.9193 10.1229C14.9193 11.7249 14.9133 11.9148 14.8844 12.5475C14.8577 13.1328 14.76 13.4502 14.6777 13.6619C14.5817 13.922 14.4284 14.1582 14.2293 14.3519C14.0193 14.5619 13.8191 14.6911 13.5393 14.8002C13.3277 14.8826 13.0102 14.9802 12.4249 15.007C11.7922 15.0359 11.6029 15.0419 10.0004 15.0419C8.39785 15.0419 8.20857 15.0359 7.57585 15.007C6.99057 14.9802 6.67312 14.8826 6.46148 14.8002C6.2013 14.7042 5.96512 14.551 5.77148 14.3519C5.57239 14.1582 5.41912 13.922 5.32312 13.6619C5.24075 13.4502 5.14312 13.1328 5.11639 12.5475C5.08748 11.9148 5.08148 11.7249 5.08148 10.1229C5.08148 8.52095 5.08748 8.33113 5.11639 7.6984C5.14312 7.11313 5.24075 6.79568 5.32312 6.58404C5.41922 6.32347 5.57242 6.0877 5.77148 5.89404C5.98148 5.68404 6.18166 5.55477 6.46148 5.44568C6.67312 5.36331 6.99057 5.26568 7.57585 5.23895C8.20857 5.21004 8.39839 5.20404 10.0004 5.20404ZM8.82019 7.27369C8.44602 7.42868 8.10604 7.65585 7.81966 7.94222C7.2413 8.52059 6.91638 9.30502 6.91638 10.1229C6.91638 10.9409 7.2413 11.7253 7.81966 12.3037C8.39803 12.882 9.18246 13.207 10.0004 13.207C10.8183 13.207 11.6028 12.882 12.1811 12.3037C12.4675 12.0173 12.6947 11.6773 12.8496 11.3032C13.0046 10.929 13.0844 10.5279 13.0844 10.1229C13.0844 9.71795 13.0046 9.31692 12.8496 8.94275C12.6947 8.56858 12.4675 8.2286 12.1811 7.94222C11.8947 7.65585 11.5548 7.42868 11.1806 7.27369C10.8064 7.11871 10.4054 7.03894 10.0004 7.03894C9.59539 7.03894 9.19436 7.11871 8.82019 7.27369ZM13.9355 7.26148C13.8962 7.35078 13.8394 7.43128 13.7684 7.49822C13.6304 7.62842 13.4471 7.6997 13.2573 7.69693C13.0676 7.69417 12.8865 7.61757 12.7523 7.48341C12.6181 7.34925 12.5415 7.16808 12.5388 6.97837C12.536 6.78865 12.6073 6.60533 12.7375 6.46731C12.8044 6.39635 12.8849 6.33953 12.9742 6.30024C13.0635 6.26094 13.1598 6.23996 13.2573 6.23854C13.3549 6.23712 13.4517 6.25528 13.5421 6.29196C13.6325 6.32864 13.7147 6.38308 13.7836 6.45206C13.8526 6.52105 13.9071 6.60317 13.9437 6.69357C13.9804 6.78398 13.9986 6.88082 13.9972 6.97837C13.9957 7.07591 13.9748 7.17219 13.9355 7.26148Z" fill="#16223B"/>
<path fill-rule="evenodd" clip-rule="evenodd" d="M0.400391 10.1229C0.400391 4.82095 4.69839 0.522949 10.0004 0.522949C15.3024 0.522949 19.6004 4.82095 19.6004 10.1229C19.6004 15.4249 15.3024 19.7229 10.0004 19.7229C4.69839 19.7229 0.400391 15.4249 0.400391 10.1229ZM10.0004 4.12295C8.37057 4.12295 8.16657 4.12949 7.52675 4.15895C6.88857 4.1884 6.45166 4.28986 6.06985 4.43768C5.66974 4.58846 5.30732 4.82468 5.00785 5.12986C4.70246 5.42948 4.46606 5.79208 4.31512 6.1924C4.1673 6.57422 4.0653 7.01059 4.03639 7.64986C4.00748 8.28913 4.00039 8.49313 4.00039 10.1229C4.00039 11.7522 4.00694 11.9562 4.03639 12.5971C4.06585 13.2353 4.1673 13.6717 4.31512 14.0535C4.46584 14.4538 4.70205 14.8164 5.0073 15.116C5.3072 15.4211 5.66998 15.6571 6.07039 15.8077C6.45221 15.956 6.88857 16.058 7.52675 16.087C8.16657 16.1159 8.37057 16.1229 10.0004 16.1229C11.6302 16.1229 11.8342 16.1164 12.4746 16.087C13.1128 16.0575 13.5491 15.956 13.9309 15.8077C14.3308 15.6571 14.6935 15.4215 14.9935 15.116C15.2985 14.8161 15.5346 14.4534 15.6851 14.053C15.8335 13.6711 15.9355 13.2348 15.9644 12.5966C15.9933 11.9568 16.0004 11.7528 16.0004 10.1229C16.0004 8.49368 15.9938 8.28968 15.9644 7.64877C15.9349 7.01059 15.8335 6.57422 15.6851 6.1924C15.5346 5.79204 15.2989 5.42986 14.9935 5.1304C14.6935 4.82495 14.3308 4.58877 13.9309 4.43768C13.5491 4.28986 13.1128 4.18786 12.4735 4.15895C11.8342 4.13004 11.6302 4.12295 10.0004 4.12295Z" fill="#16223B"/>
</svg>
