<svg width="15" height="14" viewBox="0 0 15 14" fill="none" xmlns="http://www.w3.org/2000/svg">
<path d="M13.5 12.398L12.2385 11.1939M12.2385 11.1939L10.3463 13L8.13865 10.8928L10.0309 9.08668M12.2385 11.1939L10.0309 9.08668M7.43852 6.61226C7.11718 6.92312 6.73458 7.17024 6.31277 7.33938C5.89095 7.50853 5.43825 7.59636 4.98073 7.59783C4.52321 7.59929 4.0699 7.51435 3.64691 7.34791C3.22392 7.18146 2.8396 6.9368 2.51608 6.628C2.19256 6.3192 1.93623 5.95236 1.76185 5.54861C1.58747 5.14487 1.49849 4.71219 1.50002 4.27548C1.50155 3.83877 1.59357 3.40667 1.77078 3.00405C1.94799 2.60142 2.20689 2.23624 2.53257 1.92951C3.18685 1.32634 4.06316 0.992581 4.97274 1.00013C5.88233 1.00767 6.75243 1.35591 7.39563 1.96985C8.03883 2.58379 8.40367 3.41429 8.41158 4.2825C8.41948 5.1507 8.07045 5.98774 7.43852 6.61226ZM7.43852 6.61226L10.0309 9.08668" stroke="#16223B" stroke-width="1.25" stroke-linecap="round" stroke-linejoin="round"/>
</svg>
