<svg width="20" height="20" viewBox="0 0 20 20" fill="none" xmlns="http://www.w3.org/2000/svg">
<path d="M10.0004 0.522949C4.69839 0.522949 0.400391 4.82095 0.400391 10.1229C0.400391 15.4249 4.69839 19.7229 10.0004 19.7229C15.3024 19.7229 19.6004 15.4249 19.6004 10.1229C19.6004 4.82095 15.3024 0.522949 10.0004 0.522949ZM7.65039 14.1019H5.70639V7.84595H7.65039V14.1019ZM6.66639 7.07795C6.05239 7.07795 5.65539 6.64295 5.65539 6.10495C5.65539 5.55595 6.06439 5.13395 6.69139 5.13395C7.31839 5.13395 7.70239 5.55595 7.71439 6.10495C7.71439 6.64295 7.31839 7.07795 6.66639 7.07795ZM14.7504 14.1019H12.8064V10.6349C12.8064 9.82795 12.5244 9.27995 11.8214 9.27995C11.2844 9.27995 10.9654 9.65095 10.8244 10.0079C10.7724 10.1349 10.7594 10.3149 10.7594 10.4939V14.1009H8.81439V9.84095C8.81439 9.05995 8.78939 8.40695 8.76339 7.84495H10.4524L10.5414 8.71395H10.5804C10.8364 8.30595 11.4634 7.70395 12.5124 7.70395C13.7914 7.70395 14.7504 8.56095 14.7504 10.4029V14.1019Z" fill="#16223B"/>
</svg>
