<?xml version="1.0" encoding="UTF-8" standalone="no"?>
<svg
   xmlns:dc="http://purl.org/dc/elements/1.1/"
   xmlns:cc="http://creativecommons.org/ns#"
   xmlns:rdf="http://www.w3.org/1999/02/22-rdf-syntax-ns#"
   xmlns:svg="http://www.w3.org/2000/svg"
   xmlns="http://www.w3.org/2000/svg"
   xmlns:sodipodi="http://sodipodi.sourceforge.net/DTD/sodipodi-0.dtd"
   xmlns:inkscape="http://www.inkscape.org/namespaces/inkscape"
   inkscape:version="1.0 (4035a4f, 2020-05-01)"
   sodipodi:docname="map_marker.svg"
   xml:space="preserve"
   style="enable-background:new 0 0 11.2 15;"
   viewBox="0 0 11.2 15"
   y="0px"
   x="0px"
   width="28px" 
   height="37.5px" 
   id="Layer_1"
   version="1.1"><metadata
   id="metadata18"><rdf:RDF><cc:Work
       rdf:about=""><dc:format>image/svg+xml</dc:format><dc:type
         rdf:resource="http://purl.org/dc/dcmitype/StillImage" /><dc:title></dc:title></cc:Work></rdf:RDF></metadata><defs
   id="defs16" /><sodipodi:namedview
   inkscape:current-layer="Find-your-Property_1_"
   inkscape:window-maximized="0"
   inkscape:window-y="23"
   inkscape:window-x="0"
   inkscape:cy="0.48245614"
   inkscape:cx="5.6"
   inkscape:zoom="68.4"
   showgrid="false"
   id="namedview14"
   inkscape:window-height="1009"
   inkscape:window-width="1920"
   inkscape:pageshadow="2"
   inkscape:pageopacity="0"
   guidetolerance="10"
   gridtolerance="10"
   objecttolerance="10"
   borderopacity="1"
   bordercolor="#666666"
   pagecolor="#ffffff" />
<style
   id="style10"
   type="text/css">
	.st0{fill:#D7A888;}
	.st1{fill:#16233C;}
	.st2{opacity:0.14;}
	.st3{fill-rule:evenodd;clip-rule:evenodd;fill:#16233C;}
	.st4{fill:#FFFFFF;}
	.st5{fill-rule:evenodd;clip-rule:evenodd;fill:#D7A888;}
	.st6{opacity:0.5;}
	.st7{opacity:0.3;fill:#B5B5B5;}
</style>
<path
   d="M6.2,14.7c4.3-6.2,5-6.8,5-9.1C11.2,2.5,8.7,0,5.6,0S0,2.5,0,5.6c0,2.3,0.8,2.9,5,9.1  C5.3,15.1,5.9,15.1,6.2,14.7z M5.6,8c-1.3,0-2.3-1-2.3-2.3s1-2.3,2.3-2.3S8,4.3,8,5.6S6.9,8,5.6,8z"
   class="st0"
   id="_xF3C5_" />
<g
   id="Page-1_16_"><g
     id="Find-your-Property_1_"
     transform="translate(-994,-526)"><path
       sodipodi:nodetypes="cssscccssscsssss"
       id="_xF3C5_MapView"
       class="st1"
       d="m 1000.8,540.3 c 3.7,-6 4.4,-6.6 4.4,-8.7 0,-3.1 -2.5,-5.6 -5.6,-5.6 -3.1,0 -5.6,2.5 -5.6,5.6 0,2.1 0.7,2.7 4.4,8.7 0.6,0.9 1.9,0.9 2.4,0 z m -1.2,-0.7 c -3.7,-6 -4.2,-6.4 -4.2,-8 0,-2.3 1.9,-4.2 4.2,-4.2 2.3,0 4.2,1.9 4.2,4.2 0,1.6 -0.4,1.9 -4.2,8 z m 0.0292,-5.49766 c 1.29996,0 2.44616,-1.10234 2.44616,-2.40234 0,-1.3 -1.1462,-2.43158 -2.44616,-2.43158 -1.3,0 -2.41696,1.11696 -2.41696,2.41696 0,1.2 1.11696,2.41696 2.41696,2.41696 z" /></g></g></svg>
