<svg width="30" height="30" viewBox="0 0 30 30" fill="none" xmlns="http://www.w3.org/2000/svg">
<path d="M8.82465 26.7741L2.30442 28.9475C1.53069 29.2054 0.794592 28.4693 1.0525 27.6956L3.22591 21.1753M8.82465 26.7741L25.6209 9.97787M8.82465 26.7741L6.02528 23.9747M3.22591 21.1753L20.0221 4.37914M3.22591 21.1753L6.02528 23.9747M25.6209 9.97787L28.4202 7.17851C29.1933 6.40548 29.1933 5.15216 28.4202 4.37914L25.6209 1.57977C24.8478 0.806744 23.5945 0.806744 22.8215 1.57977L20.0221 4.37914M25.6209 9.97787L22.8215 7.17851M20.0221 4.37914L22.8215 7.17851M22.8215 7.17851L6.02528 23.9747" stroke="#D7A888" stroke-width="2"/>
</svg>
