<svg width="24" height="24" viewBox="0 0 24 24" fill="none" xmlns="http://www.w3.org/2000/svg">
<path d="M19.1994 15.5812V17.7489C19.2002 17.9502 19.1589 18.1494 19.0781 18.3338C18.9973 18.5182 18.8788 18.6837 18.7302 18.8197C18.5817 18.9558 18.4062 19.0593 18.2152 19.1238C18.0242 19.1883 17.8218 19.2122 17.621 19.1941C15.393 18.9525 13.2529 18.1927 11.3726 16.9758C9.62324 15.8663 8.14007 14.3861 7.02845 12.6402C5.80482 10.7551 5.04334 8.60884 4.80568 6.37531C4.78759 6.17549 4.81138 5.9741 4.87555 5.78396C4.93972 5.59382 5.04285 5.4191 5.17839 5.27092C5.31392 5.12273 5.47889 5.00434 5.66278 4.92328C5.84667 4.84221 6.04546 4.80025 6.2465 4.80006H8.41858C8.76996 4.79661 9.1106 4.92079 9.37702 5.14946C9.64344 5.37812 9.81746 5.69567 9.86664 6.04292C9.95832 6.73666 10.1283 7.41782 10.3735 8.07341C10.4709 8.33204 10.492 8.61312 10.4342 8.88335C10.3765 9.15357 10.2423 9.40161 10.0476 9.59808L9.12813 10.5158C10.1588 12.3248 11.6597 13.8227 13.4723 14.8513L14.3918 13.9336C14.5887 13.7394 14.8372 13.6055 15.108 13.5478C15.3787 13.4902 15.6604 13.5113 15.9195 13.6085C16.5764 13.8531 17.2589 14.0228 17.954 14.1143C18.3057 14.1638 18.6269 14.3406 18.8566 14.6111C19.0862 14.8815 19.2082 15.2268 19.1994 15.5812Z" stroke="#D7A888" stroke-linecap="round" stroke-linejoin="round"/>
</svg>
