<svg width="30" height="26" viewBox="0 0 30 26" fill="none" xmlns="http://www.w3.org/2000/svg">
<path d="M21 15C21 18.3137 18.3137 21 15 21C11.6863 21 9 18.3137 9 15C9 11.6863 11.6863 9 15 9C18.3137 9 21 11.6863 21 15Z" stroke="#D7A888" stroke-width="2"/>
<path d="M1 10.5C1 8.567 2.567 7 4.5 7H5C6.65685 7 8 5.65685 8 4C8 2.34315 9.34315 1 11 1H19C20.6569 1 22 2.34315 22 4C22 5.65685 23.3431 7 25 7H25.5C27.433 7 29 8.567 29 10.5V21C29 23.2091 27.2091 25 25 25H5C2.79086 25 1 23.2091 1 21V10.5Z" stroke="#D7A888" stroke-width="2"/>
</svg>
