<svg xmlns="http://www.w3.org/2000/svg" version="1.1" xmlns:xlink="http://www.w3.org/1999/xlink" width="512" height="512" x="0" y="0" viewBox="0 0 439.575 439.575" style="enable-background:new 0 0 512 512" xml:space="preserve" class=""><g><path d="M375.741 63.834c-86.554-85.707-226.199-85.021-311.906 1.533-85.112 85.953-85.112 224.421 0 310.374 86.554 85.707 226.199 85.021 311.906-1.533 85.112-85.953 85.112-224.421 0-310.374zM219.788 422.618c-111.842 0-202.831-90.988-202.831-202.831s90.988-202.83 202.831-202.83 202.831 90.988 202.831 202.831-90.989 202.83-202.831 202.83z" fill="#ffffff" opacity="1" data-original="#000000" class=""></path><path d="M339.349 212.108v.01L160.277 108.733a8.861 8.861 0 0 0-13.292 7.671v206.769a8.861 8.861 0 0 0 13.293 7.67L339.35 227.458a8.862 8.862 0 0 0-.001-15.35z" fill="#ffffff" opacity="1" data-original="#000000" class=""></path></g></svg>