<svg width="71" height="70" viewBox="0 0 71 70" fill="none" xmlns="http://www.w3.org/2000/svg">
<rect x="0.5" width="70" height="70" rx="35" fill="#16223B"/>
<path d="M19.9718 26.3689C25.8566 26.3689 27.3354 29.1454 27.3354 31.107C27.3354 32.8573 26.6714 36.0864 19.8511 36.0864H18.8552V41.2168C18.8552 42.1523 19.6097 43.0275 19.6097 43.0275H16.5918C16.5918 43.0275 17.3463 42.1523 17.3463 41.2168V28.1495C17.3463 27.2139 16.5918 26.3387 16.5918 26.3387H19.9718V26.3689ZM19.8511 35.7847C25.1323 35.7847 25.5247 33.0384 25.5247 31.1371C25.5247 28.1193 22.9293 26.7311 19.8511 26.7311H18.8552V35.7847H19.8511Z" fill="white"/>
<path d="M39.3095 43.3293C39.2793 43.2086 39.068 42.9068 38.7662 42.4843C37.7402 43.2086 36.4425 43.6613 34.9939 43.6613C33.0323 43.6613 30.6482 42.937 29.6825 40.2209C28.5055 36.9616 30.5878 34.7284 31.9157 33.6118V33.5816C29.1695 30.0205 31.5837 26.3387 35.3259 26.3387C39.4604 26.3387 39.5207 30.0809 39.5207 30.0809H38.1325C38.1325 30.0809 37.7704 26.5198 35.0241 26.6104C32.8814 26.6707 30.9198 29.6886 32.972 32.465C34.1791 34.0645 36.4425 37.022 39.4302 40.9452C40.2752 39.5872 40.577 37.867 40.245 36.3882C39.9734 34.9397 39.068 34.4568 39.068 34.4568H41.1805C41.1805 34.4568 41.422 34.9095 41.5427 36.3882C41.6936 38.2593 41.09 40.1304 39.8829 41.5186C39.8829 41.5488 39.913 41.5789 39.9432 41.6091C40.0337 41.6997 40.9693 42.9672 41.6332 43.3897H39.3095V43.3293ZM38.4946 42.092C37.0461 40.1002 33.998 36.2373 32.127 33.823C29.3807 36.8711 30.7387 43.3897 35.3862 43.2991C36.6236 43.2689 37.6798 42.8163 38.4946 42.092Z" fill="#D7A888"/>
<path d="M47.044 26.3689C52.9288 26.3689 54.4076 29.1454 54.4076 31.107C54.4076 32.8573 53.7436 36.0864 46.9233 36.0864H45.9274V41.2168C45.9274 42.1523 46.6818 43.0275 46.6818 43.0275H43.6338C43.6338 43.0275 44.3883 42.1523 44.3883 41.2168V28.1495C44.3883 27.2139 43.6338 26.3387 43.6338 26.3387H47.044V26.3689ZM46.9233 35.7847C52.2045 35.7847 52.5968 33.0384 52.5968 31.1371C52.5968 28.1193 50.0015 26.7311 46.9233 26.7311H45.9274V35.7847H46.9233Z" fill="white"/>
</svg>
