<svg width="1300" height="602" viewBox="0 0 1300 602" fill="none" xmlns="http://www.w3.org/2000/svg">
<path d="M25.9615 201L1 225.983V226.121M25.9615 201L1 176.018V126.121M25.9615 201L50.9231 176.018M25.9615 301L1 276.017V226.121M25.9615 301L50.9231 276.017M25.9615 301L1 325.983V326.121M50.9231 276.017L75.8846 301M50.9231 276.017V301M75.8846 301L100.846 276.017M75.8846 301L100.846 325.983M100.846 276.017V225.983M100.846 276.017L125.808 301M100.846 276.017V226.121M100.846 225.983L75.8844 201M100.846 225.983L75.781 251.069M100.846 225.983L125.808 201M100.846 225.983V226.121M75.8844 201L50.9231 176.018M75.8844 201L100.846 176.018M1 226.121L25.927 251.069M25.927 251.069L50.854 276.017L75.781 251.069M25.927 251.069L50.854 226.121M50.854 226.121L75.781 251.069M50.854 226.121V201M25.9615 401L1 425.983V426.121M25.9615 401L1 376.017V326.121M25.9615 401L50.9231 376.017M25.9615 501L1 476.017V426.121M25.9615 501L50.9231 476.017M25.9615 501L1 525.983V526.121M50.9231 476.017L75.8846 501M50.9231 476.017V501M75.8846 501L100.846 476.017M75.8846 501L100.846 525.983M100.846 476.017V425.983M100.846 476.017L125.808 501M100.846 476.017V426.121M100.846 425.983L75.8844 401M100.846 425.983L75.781 451.069M100.846 425.983L125.808 401M100.846 425.983V426.121M75.8844 401L50.9231 376.017M75.8844 401L100.846 376.017M1 426.121L25.927 451.069M25.927 451.069L50.854 476.017L75.781 451.069M25.927 451.069L50.854 426.121M50.854 426.121L75.781 451.069M50.854 426.121V401M525.192 201L500.231 225.983M525.192 201L500.231 176.018M525.192 201L550.154 176.018M500.231 225.983V226.121M500.231 225.983V276.017M500.231 225.983L475.269 201M500.231 225.983L475.166 251.069M500.231 276.017L525.192 301M500.231 276.017V226.121M500.231 276.017L475.269 301M525.192 301L550.154 276.017M525.192 301L500.231 325.983M550.154 276.017L575.115 301M550.154 276.017V301M575.115 301L600.077 276.017M575.115 301L600.077 325.983M600.077 276.017V225.983M600.077 276.017L625.038 301M600.077 276.017V226.121M600.077 225.983L575.115 201M600.077 225.983L575.012 251.069M600.077 225.983L625.038 201M600.077 225.983V226.121M575.115 201L550.154 176.018M575.115 201L600.077 176.018M500.231 226.121L525.158 251.069M525.158 251.069L550.085 276.017L575.012 251.069M525.158 251.069L550.085 226.121M550.085 226.121L575.012 251.069M550.085 226.121V201M525.192 401L500.231 425.983M525.192 401L500.231 376.017M525.192 401L550.154 376.017M500.231 425.983V426.121M500.231 425.983V476.017M500.231 425.983L475.269 401M500.231 425.983L475.166 451.069M500.231 476.017L525.192 501M500.231 476.017V426.121M500.231 476.017L475.269 501M525.192 501L550.154 476.017M525.192 501L500.231 525.983M550.154 476.017L575.115 501M550.154 476.017V501M575.115 501L600.077 476.017M575.115 501L600.077 525.983M600.077 476.017V425.983M600.077 476.017L625.038 501M600.077 476.017V426.121M600.077 425.983L575.115 401M600.077 425.983L575.012 451.069M600.077 425.983L625.038 401M600.077 425.983V426.121M575.115 401L550.154 376.017M575.115 401L600.077 376.017M500.231 426.121L525.158 451.069M525.158 451.069L550.085 476.017L575.012 451.069M525.158 451.069L550.085 426.121M550.085 426.121L575.012 451.069M550.085 426.121V401M25.9615 1L1 25.9828V26.1211M25.9615 101L1 76.0172V26.1211M25.9615 101L50.9231 76.0172M25.9615 101L1 125.983V126.121M50.9231 76.0172L75.8846 101M50.9231 76.0172V101M75.8846 101L100.846 76.0172M75.8846 101L100.846 125.983M100.846 76.0172V25.9828M100.846 76.0172L125.808 101M100.846 76.0172V26.1211M100.846 25.9828L75.8844 1M100.846 25.9828L75.781 51.0692M100.846 25.9828L125.808 1M100.846 25.9828V26.1211M1 26.1211L25.927 51.0692M25.927 51.0692L50.854 76.0172L75.781 51.0692M25.927 51.0692L50.854 26.1211M50.854 26.1211L75.781 51.0692M50.854 26.1211V1M525.192 1L500.231 25.9828M500.231 25.9828V26.1211M500.231 25.9828V76.0172M500.231 25.9828L475.269 1M500.231 25.9828L475.166 51.0692M500.231 76.0172L525.192 101M500.231 76.0172V26.1211M500.231 76.0172L475.269 101M525.192 101L550.154 76.0172M525.192 101L500.231 125.983M550.154 76.0172L575.115 101M550.154 76.0172V101M575.115 101L600.077 76.0172M575.115 101L600.077 125.983M600.077 76.0172V25.9828M600.077 76.0172L625.038 101M600.077 76.0172V26.1211M600.077 25.9828L575.115 1M600.077 25.9828L575.012 51.0692M600.077 25.9828L625.038 1M600.077 25.9828V26.1211M500.231 26.1211L525.158 51.0692M525.158 51.0692L550.085 76.0172L575.012 51.0692M525.158 51.0692L550.085 26.1211M550.085 26.1211L575.012 51.0692M550.085 26.1211V1M125.808 201L100.846 176.018M125.808 201L150.769 176.018M125.808 301L150.769 276.017M125.808 301L100.846 325.983M150.769 276.017L175.731 301M150.769 276.017V301M175.731 301L200.692 276.017M175.731 301L200.692 325.983M200.692 276.017V225.983M200.692 276.017L225.654 301M200.692 276.017V226.121M200.692 225.983L175.731 201M200.692 225.983L175.627 251.069M200.692 225.983L225.654 201M200.692 225.983V226.121M175.731 201L150.769 176.018M175.731 201L200.692 176.018M100.846 226.121L125.773 251.069M125.773 251.069L150.7 276.017L175.627 251.069M125.773 251.069L150.7 226.121M150.7 226.121L175.627 251.069M150.7 226.121V201M125.808 401L100.846 376.017M125.808 401L150.769 376.017M125.808 501L150.769 476.017M125.808 501L100.846 525.983M150.769 476.017L175.731 501M150.769 476.017V501M175.731 501L200.692 476.017M175.731 501L200.692 525.983M200.692 476.017V425.983M200.692 476.017L225.654 501M200.692 476.017V426.121M200.692 425.983L175.731 401M200.692 425.983L175.627 451.069M200.692 425.983L225.654 401M200.692 425.983V426.121M175.731 401L150.769 376.017M175.731 401L200.692 376.017M100.846 426.121L125.773 451.069M125.773 451.069L150.7 476.017L175.627 451.069M125.773 451.069L150.7 426.121M150.7 426.121L175.627 451.069M150.7 426.121V401M625.038 201L600.077 176.018M625.038 201L650 176.018M625.038 301L650 276.017M625.038 301L600.077 325.983M650 276.017L674.962 301M650 276.017V301M674.962 301L699.923 276.017M674.962 301L699.923 325.983M699.923 276.017V225.983M699.923 276.017L724.885 301M699.923 276.017V226.121M699.923 225.983L674.961 201M699.923 225.983L674.858 251.069M699.923 225.983L724.885 201M699.923 225.983V226.121M674.961 201L650 176.018M674.961 201L699.923 176.018M600.077 226.121L625.004 251.069M625.004 251.069L649.931 276.017L674.858 251.069M625.004 251.069L649.931 226.121M649.931 226.121L674.858 251.069M649.931 226.121V201M625.038 401L600.077 376.017M625.038 401L650 376.017M625.038 501L650 476.017M625.038 501L600.077 525.983M650 476.017L674.962 501M650 476.017V501M674.962 501L699.923 476.017M674.962 501L699.923 525.983M699.923 476.017V425.983M699.923 476.017L724.885 501M699.923 476.017V426.121M699.923 425.983L674.961 401M699.923 425.983L674.858 451.069M699.923 425.983L724.885 401M699.923 425.983V426.121M674.961 401L650 376.017M674.961 401L699.923 376.017M600.077 426.121L625.004 451.069M625.004 451.069L649.931 476.017L674.858 451.069M625.004 451.069L649.931 426.121M649.931 426.121L674.858 451.069M649.931 426.121V401M125.808 101L150.769 76.0172M125.808 101L100.846 125.983M150.769 76.0172L175.731 101M150.769 76.0172V101M175.731 101L200.692 76.0172M175.731 101L200.692 125.983M200.692 76.0172V25.9828M200.692 76.0172L225.654 101M200.692 76.0172V26.1211M200.692 25.9828L175.731 1M200.692 25.9828L175.627 51.0692M200.692 25.9828L225.654 1M200.692 25.9828V26.1211M100.846 26.1211L125.773 51.0692M125.773 51.0692L150.7 76.0172L175.627 51.0692M125.773 51.0692L150.7 26.1211M150.7 26.1211L175.627 51.0692M150.7 26.1211V1M625.038 101L650 76.0172M625.038 101L600.077 125.983M650 76.0172L674.962 101M650 76.0172V101M674.962 101L699.923 76.0172M674.962 101L699.923 125.983M699.923 76.0172V25.9828M699.923 76.0172L724.885 101M699.923 76.0172V26.1211M699.923 25.9828L674.961 1M699.923 25.9828L674.858 51.0692M699.923 25.9828L724.885 1M699.923 25.9828V26.1211M600.077 26.1211L625.004 51.0692M625.004 51.0692L649.931 76.0172L674.858 51.0692M625.004 51.0692L649.931 26.1211M649.931 26.1211L674.858 51.0692M649.931 26.1211V1M225.654 201L200.692 176.018M225.654 201L250.615 176.018M225.654 301L250.615 276.017M225.654 301L200.692 325.983M250.615 276.017L275.577 301M250.615 276.017V301M275.577 301L300.538 276.017M275.577 301L300.538 325.983M300.538 276.017V225.983M300.538 276.017L325.5 301M300.538 276.017V226.121M300.538 225.983L275.577 201M300.538 225.983L275.473 251.069M300.538 225.983L325.5 201M300.538 225.983V226.121M275.577 201L250.615 176.018M275.577 201L300.538 176.018M200.692 226.121L225.619 251.069M225.619 251.069L250.546 276.017L275.473 251.069M225.619 251.069L250.546 226.121M250.546 226.121L275.473 251.069M250.546 226.121V201M225.654 401L200.692 376.017M225.654 401L250.615 376.017M225.654 501L250.615 476.017M225.654 501L200.692 525.983M250.615 476.017L275.577 501M250.615 476.017V501M275.577 501L300.538 476.017M275.577 501L300.538 525.983M300.538 476.017V425.983M300.538 476.017L325.5 501M300.538 476.017V426.121M300.538 425.983L275.577 401M300.538 425.983L275.473 451.069M300.538 425.983L325.5 401M300.538 425.983V426.121M275.577 401L250.615 376.017M275.577 401L300.538 376.017M200.692 426.121L225.619 451.069M225.619 451.069L250.546 476.017L275.473 451.069M225.619 451.069L250.546 426.121M250.546 426.121L275.473 451.069M250.546 426.121V401M724.885 201L699.923 176.018M724.885 201L749.846 176.018M724.885 301L749.846 276.017M724.885 301L699.923 325.983M749.846 276.017L774.808 301M749.846 276.017V301M774.808 301L799.769 276.017M774.808 301L799.769 325.983M799.769 276.017V225.983M799.769 276.017L824.731 301M799.769 276.017V226.121M799.769 225.983L774.807 201M799.769 225.983L774.704 251.069M799.769 225.983L824.731 201M799.769 225.983V226.121M774.807 201L749.846 176.018M774.807 201L799.769 176.018M699.923 226.121L724.85 251.069M724.85 251.069L749.777 276.017L774.704 251.069M724.85 251.069L749.777 226.121M749.777 226.121L774.704 251.069M749.777 226.121V201M724.885 401L699.923 376.017M724.885 401L749.846 376.017M724.885 501L749.846 476.017M724.885 501L699.923 525.983M749.846 476.017L774.808 501M749.846 476.017V501M774.808 501L799.769 476.017M774.808 501L799.769 525.983M799.769 476.017V425.983M799.769 476.017L824.731 501M799.769 476.017V426.121M799.769 425.983L774.807 401M799.769 425.983L774.704 451.069M799.769 425.983L824.731 401M799.769 425.983V426.121M774.807 401L749.846 376.017M774.807 401L799.769 376.017M699.923 426.121L724.85 451.069M724.85 451.069L749.777 476.017L774.704 451.069M724.85 451.069L749.777 426.121M749.777 426.121L774.704 451.069M749.777 426.121V401M1024.42 201L999.462 225.983M1024.42 201L999.462 176.018M1024.42 201L1049.38 176.018M999.462 225.983V226.121M999.462 225.983V276.017M999.462 225.983L974.5 201M999.462 225.983L974.396 251.069M999.462 276.017L1024.42 301M999.462 276.017V226.121M999.462 276.017L974.5 301M1024.42 301L1049.38 276.017M1024.42 301L999.462 325.983M1049.38 276.017L1074.35 301M1049.38 276.017V301M1074.35 301L1099.31 276.017M1074.35 301L1099.31 325.983M1099.31 276.017V225.983M1099.31 276.017L1124.27 301M1099.31 276.017V226.121M1099.31 225.983L1074.35 201M1099.31 225.983L1074.24 251.069M1099.31 225.983L1124.27 201M1099.31 225.983V226.121M1074.35 201L1049.38 176.018M1074.35 201L1099.31 176.018M999.462 226.121L1024.39 251.069M1024.39 251.069L1049.32 276.017L1074.24 251.069M1024.39 251.069L1049.32 226.121M1049.32 226.121L1074.24 251.069M1049.32 226.121V201M1024.42 401L999.462 425.983M1024.42 401L999.462 376.017M1024.42 401L1049.38 376.017M999.462 425.983V426.121M999.462 425.983V476.017M999.462 425.983L974.5 401M999.462 425.983L974.396 451.069M999.462 476.017L1024.42 501M999.462 476.017V426.121M999.462 476.017L974.5 501M1024.42 501L1049.38 476.017M1024.42 501L999.462 525.983M1049.38 476.017L1074.35 501M1049.38 476.017V501M1074.35 501L1099.31 476.017M1074.35 501L1099.31 525.983M1099.31 476.017V425.983M1099.31 476.017L1124.27 501M1099.31 476.017V426.121M1099.31 425.983L1074.35 401M1099.31 425.983L1074.24 451.069M1099.31 425.983L1124.27 401M1099.31 425.983V426.121M1074.35 401L1049.38 376.017M1074.35 401L1099.31 376.017M999.462 426.121L1024.39 451.069M1024.39 451.069L1049.32 476.017L1074.24 451.069M1024.39 451.069L1049.32 426.121M1049.32 426.121L1074.24 451.069M1049.32 426.121V401M225.654 101L250.615 76.0172M225.654 101L200.692 125.983M250.615 76.0172L275.577 101M250.615 76.0172V101M275.577 101L300.538 76.0172M275.577 101L300.538 125.983M300.538 76.0172V25.9828M300.538 76.0172L325.5 101M300.538 76.0172V26.1211M300.538 25.9828L275.577 1M300.538 25.9828L275.473 51.0692M300.538 25.9828L325.5 1M300.538 25.9828V26.1211M200.692 26.1211L225.619 51.0692M225.619 51.0692L250.546 76.0172L275.473 51.0692M225.619 51.0692L250.546 26.1211M250.546 26.1211L275.473 51.0692M250.546 26.1211V1M724.885 101L749.846 76.0172M724.885 101L699.923 125.983M749.846 76.0172L774.808 101M749.846 76.0172V101M774.808 101L799.769 76.0172M774.808 101L799.769 125.983M799.769 76.0172V25.9828M799.769 76.0172L824.731 101M799.769 76.0172V26.1211M799.769 25.9828L774.807 1M799.769 25.9828L774.704 51.0692M799.769 25.9828L824.731 1M799.769 25.9828V26.1211M699.923 26.1211L724.85 51.0692M724.85 51.0692L749.777 76.0172L774.704 51.0692M724.85 51.0692L749.777 26.1211M749.777 26.1211L774.704 51.0692M749.777 26.1211V1M1024.42 1L999.462 25.9828M999.462 25.9828V26.1211M999.462 25.9828V76.0172M999.462 25.9828L974.5 1M999.462 25.9828L974.396 51.0692M999.462 76.0172L1024.42 101M999.462 76.0172V26.1211M999.462 76.0172L974.5 101M1024.42 101L1049.38 76.0172M1024.42 101L999.462 125.983M1049.38 76.0172L1074.35 101M1049.38 76.0172V101M1074.35 101L1099.31 76.0172M1074.35 101L1099.31 125.983M1099.31 76.0172V25.9828M1099.31 76.0172L1124.27 101M1099.31 76.0172V26.1211M1099.31 25.9828L1074.35 1M1099.31 25.9828L1074.24 51.0692M1099.31 25.9828L1124.27 1M1099.31 25.9828V26.1211M999.462 26.1211L1024.39 51.0692M1024.39 51.0692L1049.32 76.0172L1074.24 51.0692M1024.39 51.0692L1049.32 26.1211M1049.32 26.1211L1074.24 51.0692M1049.32 26.1211V1M325.5 201L300.538 176.018M325.5 201L350.462 176.018M325.5 301L350.462 276.017M325.5 301L300.538 325.983M350.462 276.017L375.423 301M350.462 276.017V301M375.423 301L400.385 276.017M375.423 301L400.385 325.983M400.385 276.017V225.983M400.385 276.017L425.346 301M400.385 276.017V226.121M400.385 225.983L375.423 201M400.385 225.983L375.319 251.069M400.385 225.983L425.346 201M400.385 225.983V226.121M375.423 201L350.462 176.018M375.423 201L400.385 176.018M300.538 226.121L325.465 251.069M325.465 251.069L350.392 276.017L375.319 251.069M325.465 251.069L350.392 226.121M350.392 226.121L375.319 251.069M350.392 226.121V201M325.5 401L300.538 376.017M325.5 401L350.462 376.017M325.5 501L350.462 476.017M325.5 501L300.538 525.983M350.462 476.017L375.423 501M350.462 476.017V501M375.423 501L400.385 476.017M375.423 501L400.385 525.983M400.385 476.017V425.983M400.385 476.017L425.346 501M400.385 476.017V426.121M400.385 425.983L375.423 401M400.385 425.983L375.319 451.069M400.385 425.983L425.346 401M400.385 425.983V426.121M375.423 401L350.462 376.017M375.423 401L400.385 376.017M300.538 426.121L325.465 451.069M325.465 451.069L350.392 476.017L375.319 451.069M325.465 451.069L350.392 426.121M350.392 426.121L375.319 451.069M350.392 426.121V401M824.731 201L799.769 176.018M824.731 201L849.692 176.018M824.731 301L849.692 276.017M824.731 301L799.769 325.983M849.692 276.017L874.654 301M849.692 276.017V301M874.654 301L899.615 276.017M874.654 301L899.615 325.983M899.615 276.017V225.983M899.615 276.017L924.577 301M899.615 276.017V226.121M899.615 225.983L874.654 201M899.615 225.983L874.55 251.069M899.615 225.983L924.577 201M899.615 225.983V226.121M874.654 201L849.692 176.018M874.654 201L899.615 176.018M799.769 226.121L824.696 251.069M824.696 251.069L849.623 276.017L874.55 251.069M824.696 251.069L849.623 226.121M849.623 226.121L874.55 251.069M849.623 226.121V201M824.731 401L799.769 376.017M824.731 401L849.692 376.017M824.731 501L849.692 476.017M824.731 501L799.769 525.983M849.692 476.017L874.654 501M849.692 476.017V501M874.654 501L899.615 476.017M874.654 501L899.615 525.983M899.615 476.017V425.983M899.615 476.017L924.577 501M899.615 476.017V426.121M899.615 425.983L874.654 401M899.615 425.983L874.55 451.069M899.615 425.983L924.577 401M899.615 425.983V426.121M874.654 401L849.692 376.017M874.654 401L899.615 376.017M799.769 426.121L824.696 451.069M824.696 451.069L849.623 476.017L874.55 451.069M824.696 451.069L849.623 426.121M849.623 426.121L874.55 451.069M849.623 426.121V401M1124.27 201L1099.31 176.018M1124.27 201L1149.23 176.018M1124.27 301L1149.23 276.017M1124.27 301L1099.31 325.983M1149.23 276.017L1174.19 301M1149.23 276.017V301M1174.19 301L1199.15 276.017M1174.19 301L1199.15 325.983M1199.15 276.017V225.983M1199.15 276.017L1224.12 301M1199.15 276.017V226.121M1199.15 225.983L1174.19 201M1199.15 225.983L1174.09 251.069M1199.15 225.983L1224.12 201M1199.15 225.983V226.121M1174.19 201L1149.23 176.018M1174.19 201L1199.15 176.018M1099.31 226.121L1124.23 251.069M1124.23 251.069L1149.16 276.017L1174.09 251.069M1124.23 251.069L1149.16 226.121M1149.16 226.121L1174.09 251.069M1149.16 226.121V201M1124.27 401L1099.31 376.017M1124.27 401L1149.23 376.017M1124.27 501L1149.23 476.017M1124.27 501L1099.31 525.983M1149.23 476.017L1174.19 501M1149.23 476.017V501M1174.19 501L1199.15 476.017M1174.19 501L1199.15 525.983M1199.15 476.017V425.983M1199.15 476.017L1224.12 501M1199.15 476.017V426.121M1199.15 425.983L1174.19 401M1199.15 425.983L1174.09 451.069M1199.15 425.983L1224.12 401M1199.15 425.983V426.121M1174.19 401L1149.23 376.017M1174.19 401L1199.15 376.017M1099.31 426.121L1124.23 451.069M1124.23 451.069L1149.16 476.017L1174.09 451.069M1124.23 451.069L1149.16 426.121M1149.16 426.121L1174.09 451.069M1149.16 426.121V401M325.5 101L350.462 76.0172M325.5 101L300.538 125.983M350.462 76.0172L375.423 101M350.462 76.0172V101M375.423 101L400.385 76.0172M375.423 101L400.385 125.983M400.385 76.0172V25.9828M400.385 76.0172L425.346 101M400.385 76.0172V26.1211M400.385 25.9828L375.423 1M400.385 25.9828L375.319 51.0692M400.385 25.9828L425.346 1M400.385 25.9828V26.1211M300.538 26.1211L325.465 51.0692M325.465 51.0692L350.392 76.0172L375.319 51.0692M325.465 51.0692L350.392 26.1211M350.392 26.1211L375.319 51.0692M350.392 26.1211V1M824.731 101L849.692 76.0172M824.731 101L799.769 125.983M849.692 76.0172L874.654 101M849.692 76.0172V101M874.654 101L899.615 76.0172M874.654 101L899.615 125.983M899.615 76.0172V25.9828M899.615 76.0172L924.577 101M899.615 76.0172V26.1211M899.615 25.9828L874.654 1M899.615 25.9828L874.55 51.0692M899.615 25.9828L924.577 1M899.615 25.9828V26.1211M799.769 26.1211L824.696 51.0692M824.696 51.0692L849.623 76.0172L874.55 51.0692M824.696 51.0692L849.623 26.1211M849.623 26.1211L874.55 51.0692M849.623 26.1211V1M1124.27 101L1149.23 76.0172M1124.27 101L1099.31 125.983M1149.23 76.0172L1174.19 101M1149.23 76.0172V101M1174.19 101L1199.15 76.0172M1174.19 101L1199.15 125.983M1199.15 76.0172V25.9828M1199.15 76.0172L1224.12 101M1199.15 76.0172V26.1211M1199.15 25.9828L1174.19 1M1199.15 25.9828L1174.09 51.0692M1199.15 25.9828L1224.12 1M1199.15 25.9828V26.1211M1099.31 26.1211L1124.23 51.0692M1124.23 51.0692L1149.16 76.0172L1174.09 51.0692M1124.23 51.0692L1149.16 26.1211M1149.16 26.1211L1174.09 51.0692M1149.16 26.1211V1M425.346 201L400.385 176.018M425.346 201L450.308 176.018M425.346 301L450.308 276.017M425.346 301L400.385 325.983M450.308 276.017L475.269 301M450.308 276.017V301M475.269 301L500.231 325.983M475.269 201L450.308 176.018M475.269 201L500.231 176.018M400.385 226.121L425.312 251.069M425.312 251.069L450.239 276.017L475.166 251.069M425.312 251.069L450.239 226.121M450.239 226.121L475.166 251.069M450.239 226.121V201M425.346 401L400.385 376.017M425.346 401L450.308 376.017M425.346 501L450.308 476.017M425.346 501L400.385 525.983M450.308 476.017L475.269 501M450.308 476.017V501M475.269 501L500.231 525.983M475.269 401L450.308 376.017M475.269 401L500.231 376.017M400.385 426.121L425.312 451.069M425.312 451.069L450.239 476.017L475.166 451.069M425.312 451.069L450.239 426.121M450.239 426.121L475.166 451.069M450.239 426.121V401M924.577 201L899.615 176.018M924.577 201L949.538 176.018M924.577 301L949.538 276.017M924.577 301L899.615 325.983M949.538 276.017L974.5 301M949.538 276.017V301M974.5 301L999.462 325.983M974.5 201L949.538 176.018M974.5 201L999.462 176.018M899.615 226.121L924.542 251.069M924.542 251.069L949.469 276.017L974.396 251.069M924.542 251.069L949.469 226.121M949.469 226.121L974.396 251.069M949.469 226.121V201M924.577 401L899.615 376.017M924.577 401L949.538 376.017M924.577 501L949.538 476.017M924.577 501L899.615 525.983M949.538 476.017L974.5 501M949.538 476.017V501M974.5 501L999.462 525.983M974.5 401L949.538 376.017M974.5 401L999.462 376.017M899.615 426.121L924.542 451.069M924.542 451.069L949.469 476.017L974.396 451.069M924.542 451.069L949.469 426.121M949.469 426.121L974.396 451.069M949.469 426.121V401M1224.12 201L1199.15 176.018M1224.12 201L1249.08 176.018M1224.12 301L1249.08 276.017M1224.12 301L1199.15 325.983M1249.08 276.017L1274.04 301M1249.08 276.017V301M1274.04 301L1299 276.017V225.983M1274.04 301L1299 325.983M1299 225.983L1274.04 201M1299 225.983L1273.93 251.069M1274.04 201L1249.08 176.018M1274.04 201L1299 176.018V125.983M1199.15 226.121L1224.08 251.069M1224.08 251.069L1249.01 276.017L1273.93 251.069M1224.08 251.069L1249.01 226.121M1249.01 226.121L1273.93 251.069M1249.01 226.121V201M1224.12 401L1199.15 376.017M1224.12 401L1249.08 376.017M1224.12 501L1249.08 476.017M1224.12 501L1199.15 525.983M1249.08 476.017L1274.04 501M1249.08 476.017V501M1274.04 501L1299 476.017V425.983M1274.04 501L1299 525.983M1299 425.983L1274.04 401M1299 425.983L1273.93 451.069M1274.04 401L1249.08 376.017M1274.04 401L1299 376.017V325.983M1199.15 426.121L1224.08 451.069M1224.08 451.069L1249.01 476.017L1273.93 451.069M1224.08 451.069L1249.01 426.121M1249.01 426.121L1273.93 451.069M1249.01 426.121V401M425.346 101L450.308 76.0172M425.346 101L400.385 125.983M450.308 76.0172L475.269 101M450.308 76.0172V101M475.269 101L500.231 125.983M400.385 26.1211L425.312 51.0692M425.312 51.0692L450.239 76.0172L475.166 51.0692M425.312 51.0692L450.239 26.1211M450.239 26.1211L475.166 51.0692M450.239 26.1211V1M924.577 101L949.538 76.0172M924.577 101L899.615 125.983M949.538 76.0172L974.5 101M949.538 76.0172V101M974.5 101L999.462 125.983M899.615 26.1211L924.542 51.0692M924.542 51.0692L949.469 76.0172L974.396 51.0692M924.542 51.0692L949.469 26.1211M949.469 26.1211L974.396 51.0692M949.469 26.1211V1M1224.12 101L1249.08 76.0172M1224.12 101L1199.15 125.983M1249.08 76.0172L1274.04 101M1249.08 76.0172V101M1274.04 101L1299 76.0172V25.9828M1274.04 101L1299 125.983M1299 25.9828L1274.04 1M1299 25.9828L1273.93 51.0692M1199.15 26.1211L1224.08 51.0692M1224.08 51.0692L1249.01 76.0172L1273.93 51.0692M1224.08 51.0692L1249.01 26.1211M1249.01 26.1211L1273.93 51.0692M1249.01 26.1211V1M50.9231 376.017V401M100.846 376.017V325.983M100.846 376.017V326.121M100.846 325.983L75.781 351.069M100.846 325.983V326.121M1 326.121L25.927 351.069M25.927 351.069L50.854 376.017L75.781 351.069M25.927 351.069L50.854 326.121M50.854 326.121L75.781 351.069M50.854 326.121V301M50.9231 576.017L25.9615 601L1 576.017V526.121M50.9231 576.017L75.8846 601L100.846 576.017M50.9231 576.017V601M100.846 576.017V525.983M100.846 576.017L125.808 601L150.769 576.017M100.846 576.017V526.121M100.846 525.983L75.781 551.069M100.846 525.983V526.121M1 526.121L25.927 551.069M25.927 551.069L50.854 576.017L75.781 551.069M25.927 551.069L50.854 526.121M50.854 526.121L75.781 551.069M50.854 526.121V501M500.231 325.983V326.121M500.231 325.983V376.017M500.231 325.983L475.166 351.069M500.231 376.017V326.121M550.154 376.017V401M600.077 376.017V325.983M600.077 376.017V326.121M600.077 325.983L575.012 351.069M600.077 325.983V326.121M500.231 326.121L525.158 351.069M525.158 351.069L550.085 376.017L575.012 351.069M525.158 351.069L550.085 326.121M550.085 326.121L575.012 351.069M550.085 326.121V301M500.231 525.983V526.121M500.231 525.983V576.017M500.231 525.983L475.166 551.069M500.231 576.017L525.192 601L550.154 576.017M500.231 576.017V526.121M500.231 576.017L475.269 601L450.308 576.017M550.154 576.017L575.115 601L600.077 576.017M550.154 576.017V601M600.077 576.017V525.983M600.077 576.017L625.038 601L650 576.017M600.077 576.017V526.121M600.077 525.983L575.012 551.069M600.077 525.983V526.121M500.231 526.121L525.158 551.069M525.158 551.069L550.085 576.017L575.012 551.069M525.158 551.069L550.085 526.121M550.085 526.121L575.012 551.069M550.085 526.121V501M50.9231 176.018V201M100.846 176.018V125.983M100.846 176.018V126.121M100.846 125.983L75.781 151.07M100.846 125.983V126.121M1 126.121L25.927 151.07M25.927 151.07L50.854 176.018L75.781 151.07M25.927 151.07L50.854 126.121M50.854 126.121L75.781 151.07M50.854 126.121V101M500.231 125.983V126.121M500.231 125.983V176.018M500.231 125.983L475.166 151.07M500.231 176.018V126.121M550.154 176.018V201M600.077 176.018V125.983M600.077 176.018V126.121M600.077 125.983L575.012 151.07M600.077 125.983V126.121M500.231 126.121L525.158 151.07M525.158 151.07L550.085 176.018L575.012 151.07M525.158 151.07L550.085 126.121M550.085 126.121L575.012 151.07M550.085 126.121V101M150.769 376.017V401M200.692 376.017V325.983M200.692 376.017V326.121M200.692 325.983L175.627 351.069M200.692 325.983V326.121M100.846 326.121L125.773 351.069M125.773 351.069L150.7 376.017L175.627 351.069M125.773 351.069L150.7 326.121M150.7 326.121L175.627 351.069M150.7 326.121V301M150.769 576.017L175.731 601L200.692 576.017M150.769 576.017V601M200.692 576.017V525.983M200.692 576.017L225.654 601L250.615 576.017M200.692 576.017V526.121M200.692 525.983L175.627 551.069M200.692 525.983V526.121M100.846 526.121L125.773 551.069M125.773 551.069L150.7 576.017L175.627 551.069M125.773 551.069L150.7 526.121M150.7 526.121L175.627 551.069M150.7 526.121V501M650 376.017V401M699.923 376.017V325.983M699.923 376.017V326.121M699.923 325.983L674.858 351.069M699.923 325.983V326.121M600.077 326.121L625.004 351.069M625.004 351.069L649.931 376.017L674.858 351.069M625.004 351.069L649.931 326.121M649.931 326.121L674.858 351.069M649.931 326.121V301M650 576.017L674.962 601L699.923 576.017M650 576.017V601M699.923 576.017V525.983M699.923 576.017L724.885 601L749.846 576.017M699.923 576.017V526.121M699.923 525.983L674.858 551.069M699.923 525.983V526.121M600.077 526.121L625.004 551.069M625.004 551.069L649.931 576.017L674.858 551.069M625.004 551.069L649.931 526.121M649.931 526.121L674.858 551.069M649.931 526.121V501M150.769 176.018V201M200.692 176.018V125.983M200.692 176.018V126.121M200.692 125.983L175.627 151.07M200.692 125.983V126.121M100.846 126.121L125.773 151.07M125.773 151.07L150.7 176.018L175.627 151.07M125.773 151.07L150.7 126.121M150.7 126.121L175.627 151.07M150.7 126.121V101M650 176.018V201M699.923 176.018V125.983M699.923 176.018V126.121M699.923 125.983L674.858 151.07M699.923 125.983V126.121M600.077 126.121L625.004 151.07M625.004 151.07L649.931 176.018L674.858 151.07M625.004 151.07L649.931 126.121M649.931 126.121L674.858 151.07M649.931 126.121V101M250.615 376.017V401M300.538 376.017V325.983M300.538 376.017V326.121M300.538 325.983L275.473 351.069M300.538 325.983V326.121M200.692 326.121L225.619 351.069M225.619 351.069L250.546 376.017L275.473 351.069M225.619 351.069L250.546 326.121M250.546 326.121L275.473 351.069M250.546 326.121V301M250.615 576.017L275.577 601L300.538 576.017M250.615 576.017V601M300.538 576.017V525.983M300.538 576.017L325.5 601L350.462 576.017M300.538 576.017V526.121M300.538 525.983L275.473 551.069M300.538 525.983V526.121M200.692 526.121L225.619 551.069M225.619 551.069L250.546 576.017L275.473 551.069M225.619 551.069L250.546 526.121M250.546 526.121L275.473 551.069M250.546 526.121V501M749.846 376.017V401M799.769 376.017V325.983M799.769 376.017V326.121M799.769 325.983L774.704 351.069M799.769 325.983V326.121M699.923 326.121L724.85 351.069M724.85 351.069L749.777 376.017L774.704 351.069M724.85 351.069L749.777 326.121M749.777 326.121L774.704 351.069M749.777 326.121V301M749.846 576.017L774.808 601L799.769 576.017M749.846 576.017V601M799.769 576.017V525.983M799.769 576.017L824.731 601L849.692 576.017M799.769 576.017V526.121M799.769 525.983L774.704 551.069M799.769 525.983V526.121M699.923 526.121L724.85 551.069M724.85 551.069L749.777 576.017L774.704 551.069M724.85 551.069L749.777 526.121M749.777 526.121L774.704 551.069M749.777 526.121V501M999.462 325.983V326.121M999.462 325.983V376.017M999.462 325.983L974.396 351.069M999.462 376.017V326.121M1049.38 376.017V401M1099.31 376.017V325.983M1099.31 376.017V326.121M1099.31 325.983L1074.24 351.069M1099.31 325.983V326.121M999.462 326.121L1024.39 351.069M1024.39 351.069L1049.32 376.017L1074.24 351.069M1024.39 351.069L1049.32 326.121M1049.32 326.121L1074.24 351.069M1049.32 326.121V301M999.462 525.983V526.121M999.462 525.983V576.017M999.462 525.983L974.396 551.069M999.462 576.017L1024.42 601L1049.38 576.017M999.462 576.017V526.121M999.462 576.017L974.5 601L949.538 576.017M1049.38 576.017L1074.35 601L1099.31 576.017M1049.38 576.017V601M1099.31 576.017V525.983M1099.31 576.017L1124.27 601L1149.23 576.017M1099.31 576.017V526.121M1099.31 525.983L1074.24 551.069M1099.31 525.983V526.121M999.462 526.121L1024.39 551.069M1024.39 551.069L1049.32 576.017L1074.24 551.069M1024.39 551.069L1049.32 526.121M1049.32 526.121L1074.24 551.069M1049.32 526.121V501M250.615 176.018V201M300.538 176.018V125.983M300.538 176.018V126.121M300.538 125.983L275.473 151.07M300.538 125.983V126.121M200.692 126.121L225.619 151.07M225.619 151.07L250.546 176.018L275.473 151.07M225.619 151.07L250.546 126.121M250.546 126.121L275.473 151.07M250.546 126.121V101M749.846 176.018V201M799.769 176.018V125.983M799.769 176.018V126.121M799.769 125.983L774.704 151.07M799.769 125.983V126.121M699.923 126.121L724.85 151.07M724.85 151.07L749.777 176.018L774.704 151.07M724.85 151.07L749.777 126.121M749.777 126.121L774.704 151.07M749.777 126.121V101M999.462 125.983V126.121M999.462 125.983V176.018M999.462 125.983L974.396 151.07M999.462 176.018V126.121M1049.38 176.018V201M1099.31 176.018V125.983M1099.31 176.018V126.121M1099.31 125.983L1074.24 151.07M1099.31 125.983V126.121M999.462 126.121L1024.39 151.07M1024.39 151.07L1049.32 176.018L1074.24 151.07M1024.39 151.07L1049.32 126.121M1049.32 126.121L1074.24 151.07M1049.32 126.121V101M350.462 376.017V401M400.385 376.017V325.983M400.385 376.017V326.121M400.385 325.983L375.319 351.069M400.385 325.983V326.121M300.538 326.121L325.465 351.069M325.465 351.069L350.392 376.017L375.319 351.069M325.465 351.069L350.392 326.121M350.392 326.121L375.319 351.069M350.392 326.121V301M350.462 576.017L375.423 601L400.385 576.017M350.462 576.017V601M400.385 576.017V525.983M400.385 576.017L425.346 601L450.308 576.017M400.385 576.017V526.121M400.385 525.983L375.319 551.069M400.385 525.983V526.121M300.538 526.121L325.465 551.069M325.465 551.069L350.392 576.017L375.319 551.069M325.465 551.069L350.392 526.121M350.392 526.121L375.319 551.069M350.392 526.121V501M849.692 376.017V401M899.615 376.017V325.983M899.615 376.017V326.121M899.615 325.983L874.55 351.069M899.615 325.983V326.121M799.769 326.121L824.696 351.069M824.696 351.069L849.623 376.017L874.55 351.069M824.696 351.069L849.623 326.121M849.623 326.121L874.55 351.069M849.623 326.121V301M849.692 576.017L874.654 601L899.615 576.017M849.692 576.017V601M899.615 576.017V525.983M899.615 576.017L924.577 601L949.538 576.017M899.615 576.017V526.121M899.615 525.983L874.55 551.069M899.615 525.983V526.121M799.769 526.121L824.696 551.069M824.696 551.069L849.623 576.017L874.55 551.069M824.696 551.069L849.623 526.121M849.623 526.121L874.55 551.069M849.623 526.121V501M1149.23 376.017V401M1199.15 376.017V325.983M1199.15 376.017V326.121M1199.15 325.983L1174.09 351.069M1199.15 325.983V326.121M1099.31 326.121L1124.23 351.069M1124.23 351.069L1149.16 376.017L1174.09 351.069M1124.23 351.069L1149.16 326.121M1149.16 326.121L1174.09 351.069M1149.16 326.121V301M1149.23 576.017L1174.19 601L1199.15 576.017M1149.23 576.017V601M1199.15 576.017V525.983M1199.15 576.017L1224.12 601L1249.08 576.017M1199.15 576.017V526.121M1199.15 525.983L1174.09 551.069M1199.15 525.983V526.121M1099.31 526.121L1124.23 551.069M1124.23 551.069L1149.16 576.017L1174.09 551.069M1124.23 551.069L1149.16 526.121M1149.16 526.121L1174.09 551.069M1149.16 526.121V501M350.462 176.018V201M400.385 176.018V125.983M400.385 176.018V126.121M400.385 125.983L375.319 151.07M400.385 125.983V126.121M300.538 126.121L325.465 151.07M325.465 151.07L350.392 176.018L375.319 151.07M325.465 151.07L350.392 126.121M350.392 126.121L375.319 151.07M350.392 126.121V101M849.692 176.018V201M899.615 176.018V125.983M899.615 176.018V126.121M899.615 125.983L874.55 151.07M899.615 125.983V126.121M799.769 126.121L824.696 151.07M824.696 151.07L849.623 176.018L874.55 151.07M824.696 151.07L849.623 126.121M849.623 126.121L874.55 151.07M849.623 126.121V101M1149.23 176.018V201M1199.15 176.018V125.983M1199.15 176.018V126.121M1199.15 125.983L1174.09 151.07M1199.15 125.983V126.121M1099.31 126.121L1124.23 151.07M1124.23 151.07L1149.16 176.018L1174.09 151.07M1124.23 151.07L1149.16 126.121M1149.16 126.121L1174.09 151.07M1149.16 126.121V101M450.308 376.017V401M400.385 326.121L425.312 351.069M425.312 351.069L450.239 376.017L475.166 351.069M425.312 351.069L450.239 326.121M450.239 326.121L475.166 351.069M450.239 326.121V301M450.308 576.017V601M400.385 526.121L425.312 551.069M425.312 551.069L450.239 576.017L475.166 551.069M425.312 551.069L450.239 526.121M450.239 526.121L475.166 551.069M450.239 526.121V501M949.538 376.017V401M899.615 326.121L924.542 351.069M924.542 351.069L949.469 376.017L974.396 351.069M924.542 351.069L949.469 326.121M949.469 326.121L974.396 351.069M949.469 326.121V301M949.538 576.017V601M899.615 526.121L924.542 551.069M924.542 551.069L949.469 576.017L974.396 551.069M924.542 551.069L949.469 526.121M949.469 526.121L974.396 551.069M949.469 526.121V501M1249.08 376.017V401M1299 325.983L1273.93 351.069M1199.15 326.121L1224.08 351.069M1224.08 351.069L1249.01 376.017L1273.93 351.069M1224.08 351.069L1249.01 326.121M1249.01 326.121L1273.93 351.069M1249.01 326.121V301M1249.08 576.017L1274.04 601L1299 576.017V525.983M1249.08 576.017V601M1299 525.983L1273.93 551.069M1199.15 526.121L1224.08 551.069M1224.08 551.069L1249.01 576.017L1273.93 551.069M1224.08 551.069L1249.01 526.121M1249.01 526.121L1273.93 551.069M1249.01 526.121V501M450.308 176.018V201M400.385 126.121L425.312 151.07M425.312 151.07L450.239 176.018L475.166 151.07M425.312 151.07L450.239 126.121M450.239 126.121L475.166 151.07M450.239 126.121V101M949.538 176.018V201M899.615 126.121L924.542 151.07M924.542 151.07L949.469 176.018L974.396 151.07M924.542 151.07L949.469 126.121M949.469 126.121L974.396 151.07M949.469 126.121V101M1249.08 176.018V201M1299 125.983L1273.93 151.07M1199.15 126.121L1224.08 151.07M1224.08 151.07L1249.01 176.018L1273.93 151.07M1224.08 151.07L1249.01 126.121M1249.01 126.121L1273.93 151.07M1249.01 126.121V101" stroke="white" stroke-opacity="0.03" stroke-linecap="square"/>
<path d="M25.9615 201L1 225.983V226.121M25.9615 201L1 176.018V126.121M25.9615 201L50.9231 176.018M25.9615 301L1 276.017V226.121M25.9615 301L50.9231 276.017M25.9615 301L1 325.983V326.121M50.9231 276.017L75.8846 301M50.9231 276.017V301M75.8846 301L100.846 276.017M75.8846 301L100.846 325.983M100.846 276.017V225.983M100.846 276.017L125.808 301M100.846 276.017V226.121M100.846 225.983L75.8844 201M100.846 225.983L75.781 251.069M100.846 225.983L125.808 201M100.846 225.983V226.121M75.8844 201L50.9231 176.018M75.8844 201L100.846 176.018M1 226.121L25.927 251.069M25.927 251.069L50.854 276.017L75.781 251.069M25.927 251.069L50.854 226.121M50.854 226.121L75.781 251.069M50.854 226.121V201M25.9615 401L1 425.983V426.121M25.9615 401L1 376.017V326.121M25.9615 401L50.9231 376.017M25.9615 501L1 476.017V426.121M25.9615 501L50.9231 476.017M25.9615 501L1 525.983V526.121M50.9231 476.017L75.8846 501M50.9231 476.017V501M75.8846 501L100.846 476.017M75.8846 501L100.846 525.983M100.846 476.017V425.983M100.846 476.017L125.808 501M100.846 476.017V426.121M100.846 425.983L75.8844 401M100.846 425.983L75.781 451.069M100.846 425.983L125.808 401M100.846 425.983V426.121M75.8844 401L50.9231 376.017M75.8844 401L100.846 376.017M1 426.121L25.927 451.069M25.927 451.069L50.854 476.017L75.781 451.069M25.927 451.069L50.854 426.121M50.854 426.121L75.781 451.069M50.854 426.121V401M525.192 201L500.231 225.983M525.192 201L500.231 176.018M525.192 201L550.154 176.018M500.231 225.983V226.121M500.231 225.983V276.017M500.231 225.983L475.269 201M500.231 225.983L475.166 251.069M500.231 276.017L525.192 301M500.231 276.017V226.121M500.231 276.017L475.269 301M525.192 301L550.154 276.017M525.192 301L500.231 325.983M550.154 276.017L575.115 301M550.154 276.017V301M575.115 301L600.077 276.017M575.115 301L600.077 325.983M600.077 276.017V225.983M600.077 276.017L625.038 301M600.077 276.017V226.121M600.077 225.983L575.115 201M600.077 225.983L575.012 251.069M600.077 225.983L625.038 201M600.077 225.983V226.121M575.115 201L550.154 176.018M575.115 201L600.077 176.018M500.231 226.121L525.158 251.069M525.158 251.069L550.085 276.017L575.012 251.069M525.158 251.069L550.085 226.121M550.085 226.121L575.012 251.069M550.085 226.121V201M525.192 401L500.231 425.983M525.192 401L500.231 376.017M525.192 401L550.154 376.017M500.231 425.983V426.121M500.231 425.983V476.017M500.231 425.983L475.269 401M500.231 425.983L475.166 451.069M500.231 476.017L525.192 501M500.231 476.017V426.121M500.231 476.017L475.269 501M525.192 501L550.154 476.017M525.192 501L500.231 525.983M550.154 476.017L575.115 501M550.154 476.017V501M575.115 501L600.077 476.017M575.115 501L600.077 525.983M600.077 476.017V425.983M600.077 476.017L625.038 501M600.077 476.017V426.121M600.077 425.983L575.115 401M600.077 425.983L575.012 451.069M600.077 425.983L625.038 401M600.077 425.983V426.121M575.115 401L550.154 376.017M575.115 401L600.077 376.017M500.231 426.121L525.158 451.069M525.158 451.069L550.085 476.017L575.012 451.069M525.158 451.069L550.085 426.121M550.085 426.121L575.012 451.069M550.085 426.121V401M25.9615 1L1 25.9828V26.1211M25.9615 101L1 76.0172V26.1211M25.9615 101L50.9231 76.0172M25.9615 101L1 125.983V126.121M50.9231 76.0172L75.8846 101M50.9231 76.0172V101M75.8846 101L100.846 76.0172M75.8846 101L100.846 125.983M100.846 76.0172V25.9828M100.846 76.0172L125.808 101M100.846 76.0172V26.1211M100.846 25.9828L75.8844 1M100.846 25.9828L75.781 51.0692M100.846 25.9828L125.808 1M100.846 25.9828V26.1211M1 26.1211L25.927 51.0692M25.927 51.0692L50.854 76.0172L75.781 51.0692M25.927 51.0692L50.854 26.1211M50.854 26.1211L75.781 51.0692M50.854 26.1211V1M525.192 1L500.231 25.9828M500.231 25.9828V26.1211M500.231 25.9828V76.0172M500.231 25.9828L475.269 1M500.231 25.9828L475.166 51.0692M500.231 76.0172L525.192 101M500.231 76.0172V26.1211M500.231 76.0172L475.269 101M525.192 101L550.154 76.0172M525.192 101L500.231 125.983M550.154 76.0172L575.115 101M550.154 76.0172V101M575.115 101L600.077 76.0172M575.115 101L600.077 125.983M600.077 76.0172V25.9828M600.077 76.0172L625.038 101M600.077 76.0172V26.1211M600.077 25.9828L575.115 1M600.077 25.9828L575.012 51.0692M600.077 25.9828L625.038 1M600.077 25.9828V26.1211M500.231 26.1211L525.158 51.0692M525.158 51.0692L550.085 76.0172L575.012 51.0692M525.158 51.0692L550.085 26.1211M550.085 26.1211L575.012 51.0692M550.085 26.1211V1M125.808 201L100.846 176.018M125.808 201L150.769 176.018M125.808 301L150.769 276.017M125.808 301L100.846 325.983M150.769 276.017L175.731 301M150.769 276.017V301M175.731 301L200.692 276.017M175.731 301L200.692 325.983M200.692 276.017V225.983M200.692 276.017L225.654 301M200.692 276.017V226.121M200.692 225.983L175.731 201M200.692 225.983L175.627 251.069M200.692 225.983L225.654 201M200.692 225.983V226.121M175.731 201L150.769 176.018M175.731 201L200.692 176.018M100.846 226.121L125.773 251.069M125.773 251.069L150.7 276.017L175.627 251.069M125.773 251.069L150.7 226.121M150.7 226.121L175.627 251.069M150.7 226.121V201M125.808 401L100.846 376.017M125.808 401L150.769 376.017M125.808 501L150.769 476.017M125.808 501L100.846 525.983M150.769 476.017L175.731 501M150.769 476.017V501M175.731 501L200.692 476.017M175.731 501L200.692 525.983M200.692 476.017V425.983M200.692 476.017L225.654 501M200.692 476.017V426.121M200.692 425.983L175.731 401M200.692 425.983L175.627 451.069M200.692 425.983L225.654 401M200.692 425.983V426.121M175.731 401L150.769 376.017M175.731 401L200.692 376.017M100.846 426.121L125.773 451.069M125.773 451.069L150.7 476.017L175.627 451.069M125.773 451.069L150.7 426.121M150.7 426.121L175.627 451.069M150.7 426.121V401M625.038 201L600.077 176.018M625.038 201L650 176.018M625.038 301L650 276.017M625.038 301L600.077 325.983M650 276.017L674.962 301M650 276.017V301M674.962 301L699.923 276.017M674.962 301L699.923 325.983M699.923 276.017V225.983M699.923 276.017L724.885 301M699.923 276.017V226.121M699.923 225.983L674.961 201M699.923 225.983L674.858 251.069M699.923 225.983L724.885 201M699.923 225.983V226.121M674.961 201L650 176.018M674.961 201L699.923 176.018M600.077 226.121L625.004 251.069M625.004 251.069L649.931 276.017L674.858 251.069M625.004 251.069L649.931 226.121M649.931 226.121L674.858 251.069M649.931 226.121V201M625.038 401L600.077 376.017M625.038 401L650 376.017M625.038 501L650 476.017M625.038 501L600.077 525.983M650 476.017L674.962 501M650 476.017V501M674.962 501L699.923 476.017M674.962 501L699.923 525.983M699.923 476.017V425.983M699.923 476.017L724.885 501M699.923 476.017V426.121M699.923 425.983L674.961 401M699.923 425.983L674.858 451.069M699.923 425.983L724.885 401M699.923 425.983V426.121M674.961 401L650 376.017M674.961 401L699.923 376.017M600.077 426.121L625.004 451.069M625.004 451.069L649.931 476.017L674.858 451.069M625.004 451.069L649.931 426.121M649.931 426.121L674.858 451.069M649.931 426.121V401M125.808 101L150.769 76.0172M125.808 101L100.846 125.983M150.769 76.0172L175.731 101M150.769 76.0172V101M175.731 101L200.692 76.0172M175.731 101L200.692 125.983M200.692 76.0172V25.9828M200.692 76.0172L225.654 101M200.692 76.0172V26.1211M200.692 25.9828L175.731 1M200.692 25.9828L175.627 51.0692M200.692 25.9828L225.654 1M200.692 25.9828V26.1211M100.846 26.1211L125.773 51.0692M125.773 51.0692L150.7 76.0172L175.627 51.0692M125.773 51.0692L150.7 26.1211M150.7 26.1211L175.627 51.0692M150.7 26.1211V1M625.038 101L650 76.0172M625.038 101L600.077 125.983M650 76.0172L674.962 101M650 76.0172V101M674.962 101L699.923 76.0172M674.962 101L699.923 125.983M699.923 76.0172V25.9828M699.923 76.0172L724.885 101M699.923 76.0172V26.1211M699.923 25.9828L674.961 1M699.923 25.9828L674.858 51.0692M699.923 25.9828L724.885 1M699.923 25.9828V26.1211M600.077 26.1211L625.004 51.0692M625.004 51.0692L649.931 76.0172L674.858 51.0692M625.004 51.0692L649.931 26.1211M649.931 26.1211L674.858 51.0692M649.931 26.1211V1M225.654 201L200.692 176.018M225.654 201L250.615 176.018M225.654 301L250.615 276.017M225.654 301L200.692 325.983M250.615 276.017L275.577 301M250.615 276.017V301M275.577 301L300.538 276.017M275.577 301L300.538 325.983M300.538 276.017V225.983M300.538 276.017L325.5 301M300.538 276.017V226.121M300.538 225.983L275.577 201M300.538 225.983L275.473 251.069M300.538 225.983L325.5 201M300.538 225.983V226.121M275.577 201L250.615 176.018M275.577 201L300.538 176.018M200.692 226.121L225.619 251.069M225.619 251.069L250.546 276.017L275.473 251.069M225.619 251.069L250.546 226.121M250.546 226.121L275.473 251.069M250.546 226.121V201M225.654 401L200.692 376.017M225.654 401L250.615 376.017M225.654 501L250.615 476.017M225.654 501L200.692 525.983M250.615 476.017L275.577 501M250.615 476.017V501M275.577 501L300.538 476.017M275.577 501L300.538 525.983M300.538 476.017V425.983M300.538 476.017L325.5 501M300.538 476.017V426.121M300.538 425.983L275.577 401M300.538 425.983L275.473 451.069M300.538 425.983L325.5 401M300.538 425.983V426.121M275.577 401L250.615 376.017M275.577 401L300.538 376.017M200.692 426.121L225.619 451.069M225.619 451.069L250.546 476.017L275.473 451.069M225.619 451.069L250.546 426.121M250.546 426.121L275.473 451.069M250.546 426.121V401M724.885 201L699.923 176.018M724.885 201L749.846 176.018M724.885 301L749.846 276.017M724.885 301L699.923 325.983M749.846 276.017L774.808 301M749.846 276.017V301M774.808 301L799.769 276.017M774.808 301L799.769 325.983M799.769 276.017V225.983M799.769 276.017L824.731 301M799.769 276.017V226.121M799.769 225.983L774.807 201M799.769 225.983L774.704 251.069M799.769 225.983L824.731 201M799.769 225.983V226.121M774.807 201L749.846 176.018M774.807 201L799.769 176.018M699.923 226.121L724.85 251.069M724.85 251.069L749.777 276.017L774.704 251.069M724.85 251.069L749.777 226.121M749.777 226.121L774.704 251.069M749.777 226.121V201M724.885 401L699.923 376.017M724.885 401L749.846 376.017M724.885 501L749.846 476.017M724.885 501L699.923 525.983M749.846 476.017L774.808 501M749.846 476.017V501M774.808 501L799.769 476.017M774.808 501L799.769 525.983M799.769 476.017V425.983M799.769 476.017L824.731 501M799.769 476.017V426.121M799.769 425.983L774.807 401M799.769 425.983L774.704 451.069M799.769 425.983L824.731 401M799.769 425.983V426.121M774.807 401L749.846 376.017M774.807 401L799.769 376.017M699.923 426.121L724.85 451.069M724.85 451.069L749.777 476.017L774.704 451.069M724.85 451.069L749.777 426.121M749.777 426.121L774.704 451.069M749.777 426.121V401M1024.42 201L999.462 225.983M1024.42 201L999.462 176.018M1024.42 201L1049.38 176.018M999.462 225.983V226.121M999.462 225.983V276.017M999.462 225.983L974.5 201M999.462 225.983L974.396 251.069M999.462 276.017L1024.42 301M999.462 276.017V226.121M999.462 276.017L974.5 301M1024.42 301L1049.38 276.017M1024.42 301L999.462 325.983M1049.38 276.017L1074.35 301M1049.38 276.017V301M1074.35 301L1099.31 276.017M1074.35 301L1099.31 325.983M1099.31 276.017V225.983M1099.31 276.017L1124.27 301M1099.31 276.017V226.121M1099.31 225.983L1074.35 201M1099.31 225.983L1074.24 251.069M1099.31 225.983L1124.27 201M1099.31 225.983V226.121M1074.35 201L1049.38 176.018M1074.35 201L1099.31 176.018M999.462 226.121L1024.39 251.069M1024.39 251.069L1049.32 276.017L1074.24 251.069M1024.39 251.069L1049.32 226.121M1049.32 226.121L1074.24 251.069M1049.32 226.121V201M1024.42 401L999.462 425.983M1024.42 401L999.462 376.017M1024.42 401L1049.38 376.017M999.462 425.983V426.121M999.462 425.983V476.017M999.462 425.983L974.5 401M999.462 425.983L974.396 451.069M999.462 476.017L1024.42 501M999.462 476.017V426.121M999.462 476.017L974.5 501M1024.42 501L1049.38 476.017M1024.42 501L999.462 525.983M1049.38 476.017L1074.35 501M1049.38 476.017V501M1074.35 501L1099.31 476.017M1074.35 501L1099.31 525.983M1099.31 476.017V425.983M1099.31 476.017L1124.27 501M1099.31 476.017V426.121M1099.31 425.983L1074.35 401M1099.31 425.983L1074.24 451.069M1099.31 425.983L1124.27 401M1099.31 425.983V426.121M1074.35 401L1049.38 376.017M1074.35 401L1099.31 376.017M999.462 426.121L1024.39 451.069M1024.39 451.069L1049.32 476.017L1074.24 451.069M1024.39 451.069L1049.32 426.121M1049.32 426.121L1074.24 451.069M1049.32 426.121V401M225.654 101L250.615 76.0172M225.654 101L200.692 125.983M250.615 76.0172L275.577 101M250.615 76.0172V101M275.577 101L300.538 76.0172M275.577 101L300.538 125.983M300.538 76.0172V25.9828M300.538 76.0172L325.5 101M300.538 76.0172V26.1211M300.538 25.9828L275.577 1M300.538 25.9828L275.473 51.0692M300.538 25.9828L325.5 1M300.538 25.9828V26.1211M200.692 26.1211L225.619 51.0692M225.619 51.0692L250.546 76.0172L275.473 51.0692M225.619 51.0692L250.546 26.1211M250.546 26.1211L275.473 51.0692M250.546 26.1211V1M724.885 101L749.846 76.0172M724.885 101L699.923 125.983M749.846 76.0172L774.808 101M749.846 76.0172V101M774.808 101L799.769 76.0172M774.808 101L799.769 125.983M799.769 76.0172V25.9828M799.769 76.0172L824.731 101M799.769 76.0172V26.1211M799.769 25.9828L774.807 1M799.769 25.9828L774.704 51.0692M799.769 25.9828L824.731 1M799.769 25.9828V26.1211M699.923 26.1211L724.85 51.0692M724.85 51.0692L749.777 76.0172L774.704 51.0692M724.85 51.0692L749.777 26.1211M749.777 26.1211L774.704 51.0692M749.777 26.1211V1M1024.42 1L999.462 25.9828M999.462 25.9828V26.1211M999.462 25.9828V76.0172M999.462 25.9828L974.5 1M999.462 25.9828L974.396 51.0692M999.462 76.0172L1024.42 101M999.462 76.0172V26.1211M999.462 76.0172L974.5 101M1024.42 101L1049.38 76.0172M1024.42 101L999.462 125.983M1049.38 76.0172L1074.35 101M1049.38 76.0172V101M1074.35 101L1099.31 76.0172M1074.35 101L1099.31 125.983M1099.31 76.0172V25.9828M1099.31 76.0172L1124.27 101M1099.31 76.0172V26.1211M1099.31 25.9828L1074.35 1M1099.31 25.9828L1074.24 51.0692M1099.31 25.9828L1124.27 1M1099.31 25.9828V26.1211M999.462 26.1211L1024.39 51.0692M1024.39 51.0692L1049.32 76.0172L1074.24 51.0692M1024.39 51.0692L1049.32 26.1211M1049.32 26.1211L1074.24 51.0692M1049.32 26.1211V1M325.5 201L300.538 176.018M325.5 201L350.462 176.018M325.5 301L350.462 276.017M325.5 301L300.538 325.983M350.462 276.017L375.423 301M350.462 276.017V301M375.423 301L400.385 276.017M375.423 301L400.385 325.983M400.385 276.017V225.983M400.385 276.017L425.346 301M400.385 276.017V226.121M400.385 225.983L375.423 201M400.385 225.983L375.319 251.069M400.385 225.983L425.346 201M400.385 225.983V226.121M375.423 201L350.462 176.018M375.423 201L400.385 176.018M300.538 226.121L325.465 251.069M325.465 251.069L350.392 276.017L375.319 251.069M325.465 251.069L350.392 226.121M350.392 226.121L375.319 251.069M350.392 226.121V201M325.5 401L300.538 376.017M325.5 401L350.462 376.017M325.5 501L350.462 476.017M325.5 501L300.538 525.983M350.462 476.017L375.423 501M350.462 476.017V501M375.423 501L400.385 476.017M375.423 501L400.385 525.983M400.385 476.017V425.983M400.385 476.017L425.346 501M400.385 476.017V426.121M400.385 425.983L375.423 401M400.385 425.983L375.319 451.069M400.385 425.983L425.346 401M400.385 425.983V426.121M375.423 401L350.462 376.017M375.423 401L400.385 376.017M300.538 426.121L325.465 451.069M325.465 451.069L350.392 476.017L375.319 451.069M325.465 451.069L350.392 426.121M350.392 426.121L375.319 451.069M350.392 426.121V401M824.731 201L799.769 176.018M824.731 201L849.692 176.018M824.731 301L849.692 276.017M824.731 301L799.769 325.983M849.692 276.017L874.654 301M849.692 276.017V301M874.654 301L899.615 276.017M874.654 301L899.615 325.983M899.615 276.017V225.983M899.615 276.017L924.577 301M899.615 276.017V226.121M899.615 225.983L874.654 201M899.615 225.983L874.55 251.069M899.615 225.983L924.577 201M899.615 225.983V226.121M874.654 201L849.692 176.018M874.654 201L899.615 176.018M799.769 226.121L824.696 251.069M824.696 251.069L849.623 276.017L874.55 251.069M824.696 251.069L849.623 226.121M849.623 226.121L874.55 251.069M849.623 226.121V201M824.731 401L799.769 376.017M824.731 401L849.692 376.017M824.731 501L849.692 476.017M824.731 501L799.769 525.983M849.692 476.017L874.654 501M849.692 476.017V501M874.654 501L899.615 476.017M874.654 501L899.615 525.983M899.615 476.017V425.983M899.615 476.017L924.577 501M899.615 476.017V426.121M899.615 425.983L874.654 401M899.615 425.983L874.55 451.069M899.615 425.983L924.577 401M899.615 425.983V426.121M874.654 401L849.692 376.017M874.654 401L899.615 376.017M799.769 426.121L824.696 451.069M824.696 451.069L849.623 476.017L874.55 451.069M824.696 451.069L849.623 426.121M849.623 426.121L874.55 451.069M849.623 426.121V401M1124.27 201L1099.31 176.018M1124.27 201L1149.23 176.018M1124.27 301L1149.23 276.017M1124.27 301L1099.31 325.983M1149.23 276.017L1174.19 301M1149.23 276.017V301M1174.19 301L1199.15 276.017M1174.19 301L1199.15 325.983M1199.15 276.017V225.983M1199.15 276.017L1224.12 301M1199.15 276.017V226.121M1199.15 225.983L1174.19 201M1199.15 225.983L1174.09 251.069M1199.15 225.983L1224.12 201M1199.15 225.983V226.121M1174.19 201L1149.23 176.018M1174.19 201L1199.15 176.018M1099.31 226.121L1124.23 251.069M1124.23 251.069L1149.16 276.017L1174.09 251.069M1124.23 251.069L1149.16 226.121M1149.16 226.121L1174.09 251.069M1149.16 226.121V201M1124.27 401L1099.31 376.017M1124.27 401L1149.23 376.017M1124.27 501L1149.23 476.017M1124.27 501L1099.31 525.983M1149.23 476.017L1174.19 501M1149.23 476.017V501M1174.19 501L1199.15 476.017M1174.19 501L1199.15 525.983M1199.15 476.017V425.983M1199.15 476.017L1224.12 501M1199.15 476.017V426.121M1199.15 425.983L1174.19 401M1199.15 425.983L1174.09 451.069M1199.15 425.983L1224.12 401M1199.15 425.983V426.121M1174.19 401L1149.23 376.017M1174.19 401L1199.15 376.017M1099.31 426.121L1124.23 451.069M1124.23 451.069L1149.16 476.017L1174.09 451.069M1124.23 451.069L1149.16 426.121M1149.16 426.121L1174.09 451.069M1149.16 426.121V401M325.5 101L350.462 76.0172M325.5 101L300.538 125.983M350.462 76.0172L375.423 101M350.462 76.0172V101M375.423 101L400.385 76.0172M375.423 101L400.385 125.983M400.385 76.0172V25.9828M400.385 76.0172L425.346 101M400.385 76.0172V26.1211M400.385 25.9828L375.423 1M400.385 25.9828L375.319 51.0692M400.385 25.9828L425.346 1M400.385 25.9828V26.1211M300.538 26.1211L325.465 51.0692M325.465 51.0692L350.392 76.0172L375.319 51.0692M325.465 51.0692L350.392 26.1211M350.392 26.1211L375.319 51.0692M350.392 26.1211V1M824.731 101L849.692 76.0172M824.731 101L799.769 125.983M849.692 76.0172L874.654 101M849.692 76.0172V101M874.654 101L899.615 76.0172M874.654 101L899.615 125.983M899.615 76.0172V25.9828M899.615 76.0172L924.577 101M899.615 76.0172V26.1211M899.615 25.9828L874.654 1M899.615 25.9828L874.55 51.0692M899.615 25.9828L924.577 1M899.615 25.9828V26.1211M799.769 26.1211L824.696 51.0692M824.696 51.0692L849.623 76.0172L874.55 51.0692M824.696 51.0692L849.623 26.1211M849.623 26.1211L874.55 51.0692M849.623 26.1211V1M1124.27 101L1149.23 76.0172M1124.27 101L1099.31 125.983M1149.23 76.0172L1174.19 101M1149.23 76.0172V101M1174.19 101L1199.15 76.0172M1174.19 101L1199.15 125.983M1199.15 76.0172V25.9828M1199.15 76.0172L1224.12 101M1199.15 76.0172V26.1211M1199.15 25.9828L1174.19 1M1199.15 25.9828L1174.09 51.0692M1199.15 25.9828L1224.12 1M1199.15 25.9828V26.1211M1099.31 26.1211L1124.23 51.0692M1124.23 51.0692L1149.16 76.0172L1174.09 51.0692M1124.23 51.0692L1149.16 26.1211M1149.16 26.1211L1174.09 51.0692M1149.16 26.1211V1M425.346 201L400.385 176.018M425.346 201L450.308 176.018M425.346 301L450.308 276.017M425.346 301L400.385 325.983M450.308 276.017L475.269 301M450.308 276.017V301M475.269 301L500.231 325.983M475.269 201L450.308 176.018M475.269 201L500.231 176.018M400.385 226.121L425.312 251.069M425.312 251.069L450.239 276.017L475.166 251.069M425.312 251.069L450.239 226.121M450.239 226.121L475.166 251.069M450.239 226.121V201M425.346 401L400.385 376.017M425.346 401L450.308 376.017M425.346 501L450.308 476.017M425.346 501L400.385 525.983M450.308 476.017L475.269 501M450.308 476.017V501M475.269 501L500.231 525.983M475.269 401L450.308 376.017M475.269 401L500.231 376.017M400.385 426.121L425.312 451.069M425.312 451.069L450.239 476.017L475.166 451.069M425.312 451.069L450.239 426.121M450.239 426.121L475.166 451.069M450.239 426.121V401M924.577 201L899.615 176.018M924.577 201L949.538 176.018M924.577 301L949.538 276.017M924.577 301L899.615 325.983M949.538 276.017L974.5 301M949.538 276.017V301M974.5 301L999.462 325.983M974.5 201L949.538 176.018M974.5 201L999.462 176.018M899.615 226.121L924.542 251.069M924.542 251.069L949.469 276.017L974.396 251.069M924.542 251.069L949.469 226.121M949.469 226.121L974.396 251.069M949.469 226.121V201M924.577 401L899.615 376.017M924.577 401L949.538 376.017M924.577 501L949.538 476.017M924.577 501L899.615 525.983M949.538 476.017L974.5 501M949.538 476.017V501M974.5 501L999.462 525.983M974.5 401L949.538 376.017M974.5 401L999.462 376.017M899.615 426.121L924.542 451.069M924.542 451.069L949.469 476.017L974.396 451.069M924.542 451.069L949.469 426.121M949.469 426.121L974.396 451.069M949.469 426.121V401M1224.12 201L1199.15 176.018M1224.12 201L1249.08 176.018M1224.12 301L1249.08 276.017M1224.12 301L1199.15 325.983M1249.08 276.017L1274.04 301M1249.08 276.017V301M1274.04 301L1299 276.017V225.983M1274.04 301L1299 325.983M1299 225.983L1274.04 201M1299 225.983L1273.93 251.069M1274.04 201L1249.08 176.018M1274.04 201L1299 176.018V125.983M1199.15 226.121L1224.08 251.069M1224.08 251.069L1249.01 276.017L1273.93 251.069M1224.08 251.069L1249.01 226.121M1249.01 226.121L1273.93 251.069M1249.01 226.121V201M1224.12 401L1199.15 376.017M1224.12 401L1249.08 376.017M1224.12 501L1249.08 476.017M1224.12 501L1199.15 525.983M1249.08 476.017L1274.04 501M1249.08 476.017V501M1274.04 501L1299 476.017V425.983M1274.04 501L1299 525.983M1299 425.983L1274.04 401M1299 425.983L1273.93 451.069M1274.04 401L1249.08 376.017M1274.04 401L1299 376.017V325.983M1199.15 426.121L1224.08 451.069M1224.08 451.069L1249.01 476.017L1273.93 451.069M1224.08 451.069L1249.01 426.121M1249.01 426.121L1273.93 451.069M1249.01 426.121V401M425.346 101L450.308 76.0172M425.346 101L400.385 125.983M450.308 76.0172L475.269 101M450.308 76.0172V101M475.269 101L500.231 125.983M400.385 26.1211L425.312 51.0692M425.312 51.0692L450.239 76.0172L475.166 51.0692M425.312 51.0692L450.239 26.1211M450.239 26.1211L475.166 51.0692M450.239 26.1211V1M924.577 101L949.538 76.0172M924.577 101L899.615 125.983M949.538 76.0172L974.5 101M949.538 76.0172V101M974.5 101L999.462 125.983M899.615 26.1211L924.542 51.0692M924.542 51.0692L949.469 76.0172L974.396 51.0692M924.542 51.0692L949.469 26.1211M949.469 26.1211L974.396 51.0692M949.469 26.1211V1M1224.12 101L1249.08 76.0172M1224.12 101L1199.15 125.983M1249.08 76.0172L1274.04 101M1249.08 76.0172V101M1274.04 101L1299 76.0172V25.9828M1274.04 101L1299 125.983M1299 25.9828L1274.04 1M1299 25.9828L1273.93 51.0692M1199.15 26.1211L1224.08 51.0692M1224.08 51.0692L1249.01 76.0172L1273.93 51.0692M1224.08 51.0692L1249.01 26.1211M1249.01 26.1211L1273.93 51.0692M1249.01 26.1211V1M50.9231 376.017V401M100.846 376.017V325.983M100.846 376.017V326.121M100.846 325.983L75.781 351.069M100.846 325.983V326.121M1 326.121L25.927 351.069M25.927 351.069L50.854 376.017L75.781 351.069M25.927 351.069L50.854 326.121M50.854 326.121L75.781 351.069M50.854 326.121V301M50.9231 576.017L25.9615 601L1 576.017V526.121M50.9231 576.017L75.8846 601L100.846 576.017M50.9231 576.017V601M100.846 576.017V525.983M100.846 576.017L125.808 601L150.769 576.017M100.846 576.017V526.121M100.846 525.983L75.781 551.069M100.846 525.983V526.121M1 526.121L25.927 551.069M25.927 551.069L50.854 576.017L75.781 551.069M25.927 551.069L50.854 526.121M50.854 526.121L75.781 551.069M50.854 526.121V501M500.231 325.983V326.121M500.231 325.983V376.017M500.231 325.983L475.166 351.069M500.231 376.017V326.121M550.154 376.017V401M600.077 376.017V325.983M600.077 376.017V326.121M600.077 325.983L575.012 351.069M600.077 325.983V326.121M500.231 326.121L525.158 351.069M525.158 351.069L550.085 376.017L575.012 351.069M525.158 351.069L550.085 326.121M550.085 326.121L575.012 351.069M550.085 326.121V301M500.231 525.983V526.121M500.231 525.983V576.017M500.231 525.983L475.166 551.069M500.231 576.017L525.192 601L550.154 576.017M500.231 576.017V526.121M500.231 576.017L475.269 601L450.308 576.017M550.154 576.017L575.115 601L600.077 576.017M550.154 576.017V601M600.077 576.017V525.983M600.077 576.017L625.038 601L650 576.017M600.077 576.017V526.121M600.077 525.983L575.012 551.069M600.077 525.983V526.121M500.231 526.121L525.158 551.069M525.158 551.069L550.085 576.017L575.012 551.069M525.158 551.069L550.085 526.121M550.085 526.121L575.012 551.069M550.085 526.121V501M50.9231 176.018V201M100.846 176.018V125.983M100.846 176.018V126.121M100.846 125.983L75.781 151.07M100.846 125.983V126.121M1 126.121L25.927 151.07M25.927 151.07L50.854 176.018L75.781 151.07M25.927 151.07L50.854 126.121M50.854 126.121L75.781 151.07M50.854 126.121V101M500.231 125.983V126.121M500.231 125.983V176.018M500.231 125.983L475.166 151.07M500.231 176.018V126.121M550.154 176.018V201M600.077 176.018V125.983M600.077 176.018V126.121M600.077 125.983L575.012 151.07M600.077 125.983V126.121M500.231 126.121L525.158 151.07M525.158 151.07L550.085 176.018L575.012 151.07M525.158 151.07L550.085 126.121M550.085 126.121L575.012 151.07M550.085 126.121V101M150.769 376.017V401M200.692 376.017V325.983M200.692 376.017V326.121M200.692 325.983L175.627 351.069M200.692 325.983V326.121M100.846 326.121L125.773 351.069M125.773 351.069L150.7 376.017L175.627 351.069M125.773 351.069L150.7 326.121M150.7 326.121L175.627 351.069M150.7 326.121V301M150.769 576.017L175.731 601L200.692 576.017M150.769 576.017V601M200.692 576.017V525.983M200.692 576.017L225.654 601L250.615 576.017M200.692 576.017V526.121M200.692 525.983L175.627 551.069M200.692 525.983V526.121M100.846 526.121L125.773 551.069M125.773 551.069L150.7 576.017L175.627 551.069M125.773 551.069L150.7 526.121M150.7 526.121L175.627 551.069M150.7 526.121V501M650 376.017V401M699.923 376.017V325.983M699.923 376.017V326.121M699.923 325.983L674.858 351.069M699.923 325.983V326.121M600.077 326.121L625.004 351.069M625.004 351.069L649.931 376.017L674.858 351.069M625.004 351.069L649.931 326.121M649.931 326.121L674.858 351.069M649.931 326.121V301M650 576.017L674.962 601L699.923 576.017M650 576.017V601M699.923 576.017V525.983M699.923 576.017L724.885 601L749.846 576.017M699.923 576.017V526.121M699.923 525.983L674.858 551.069M699.923 525.983V526.121M600.077 526.121L625.004 551.069M625.004 551.069L649.931 576.017L674.858 551.069M625.004 551.069L649.931 526.121M649.931 526.121L674.858 551.069M649.931 526.121V501M150.769 176.018V201M200.692 176.018V125.983M200.692 176.018V126.121M200.692 125.983L175.627 151.07M200.692 125.983V126.121M100.846 126.121L125.773 151.07M125.773 151.07L150.7 176.018L175.627 151.07M125.773 151.07L150.7 126.121M150.7 126.121L175.627 151.07M150.7 126.121V101M650 176.018V201M699.923 176.018V125.983M699.923 176.018V126.121M699.923 125.983L674.858 151.07M699.923 125.983V126.121M600.077 126.121L625.004 151.07M625.004 151.07L649.931 176.018L674.858 151.07M625.004 151.07L649.931 126.121M649.931 126.121L674.858 151.07M649.931 126.121V101M250.615 376.017V401M300.538 376.017V325.983M300.538 376.017V326.121M300.538 325.983L275.473 351.069M300.538 325.983V326.121M200.692 326.121L225.619 351.069M225.619 351.069L250.546 376.017L275.473 351.069M225.619 351.069L250.546 326.121M250.546 326.121L275.473 351.069M250.546 326.121V301M250.615 576.017L275.577 601L300.538 576.017M250.615 576.017V601M300.538 576.017V525.983M300.538 576.017L325.5 601L350.462 576.017M300.538 576.017V526.121M300.538 525.983L275.473 551.069M300.538 525.983V526.121M200.692 526.121L225.619 551.069M225.619 551.069L250.546 576.017L275.473 551.069M225.619 551.069L250.546 526.121M250.546 526.121L275.473 551.069M250.546 526.121V501M749.846 376.017V401M799.769 376.017V325.983M799.769 376.017V326.121M799.769 325.983L774.704 351.069M799.769 325.983V326.121M699.923 326.121L724.85 351.069M724.85 351.069L749.777 376.017L774.704 351.069M724.85 351.069L749.777 326.121M749.777 326.121L774.704 351.069M749.777 326.121V301M749.846 576.017L774.808 601L799.769 576.017M749.846 576.017V601M799.769 576.017V525.983M799.769 576.017L824.731 601L849.692 576.017M799.769 576.017V526.121M799.769 525.983L774.704 551.069M799.769 525.983V526.121M699.923 526.121L724.85 551.069M724.85 551.069L749.777 576.017L774.704 551.069M724.85 551.069L749.777 526.121M749.777 526.121L774.704 551.069M749.777 526.121V501M999.462 325.983V326.121M999.462 325.983V376.017M999.462 325.983L974.396 351.069M999.462 376.017V326.121M1049.38 376.017V401M1099.31 376.017V325.983M1099.31 376.017V326.121M1099.31 325.983L1074.24 351.069M1099.31 325.983V326.121M999.462 326.121L1024.39 351.069M1024.39 351.069L1049.32 376.017L1074.24 351.069M1024.39 351.069L1049.32 326.121M1049.32 326.121L1074.24 351.069M1049.32 326.121V301M999.462 525.983V526.121M999.462 525.983V576.017M999.462 525.983L974.396 551.069M999.462 576.017L1024.42 601L1049.38 576.017M999.462 576.017V526.121M999.462 576.017L974.5 601L949.538 576.017M1049.38 576.017L1074.35 601L1099.31 576.017M1049.38 576.017V601M1099.31 576.017V525.983M1099.31 576.017L1124.27 601L1149.23 576.017M1099.31 576.017V526.121M1099.31 525.983L1074.24 551.069M1099.31 525.983V526.121M999.462 526.121L1024.39 551.069M1024.39 551.069L1049.32 576.017L1074.24 551.069M1024.39 551.069L1049.32 526.121M1049.32 526.121L1074.24 551.069M1049.32 526.121V501M250.615 176.018V201M300.538 176.018V125.983M300.538 176.018V126.121M300.538 125.983L275.473 151.07M300.538 125.983V126.121M200.692 126.121L225.619 151.07M225.619 151.07L250.546 176.018L275.473 151.07M225.619 151.07L250.546 126.121M250.546 126.121L275.473 151.07M250.546 126.121V101M749.846 176.018V201M799.769 176.018V125.983M799.769 176.018V126.121M799.769 125.983L774.704 151.07M799.769 125.983V126.121M699.923 126.121L724.85 151.07M724.85 151.07L749.777 176.018L774.704 151.07M724.85 151.07L749.777 126.121M749.777 126.121L774.704 151.07M749.777 126.121V101M999.462 125.983V126.121M999.462 125.983V176.018M999.462 125.983L974.396 151.07M999.462 176.018V126.121M1049.38 176.018V201M1099.31 176.018V125.983M1099.31 176.018V126.121M1099.31 125.983L1074.24 151.07M1099.31 125.983V126.121M999.462 126.121L1024.39 151.07M1024.39 151.07L1049.32 176.018L1074.24 151.07M1024.39 151.07L1049.32 126.121M1049.32 126.121L1074.24 151.07M1049.32 126.121V101M350.462 376.017V401M400.385 376.017V325.983M400.385 376.017V326.121M400.385 325.983L375.319 351.069M400.385 325.983V326.121M300.538 326.121L325.465 351.069M325.465 351.069L350.392 376.017L375.319 351.069M325.465 351.069L350.392 326.121M350.392 326.121L375.319 351.069M350.392 326.121V301M350.462 576.017L375.423 601L400.385 576.017M350.462 576.017V601M400.385 576.017V525.983M400.385 576.017L425.346 601L450.308 576.017M400.385 576.017V526.121M400.385 525.983L375.319 551.069M400.385 525.983V526.121M300.538 526.121L325.465 551.069M325.465 551.069L350.392 576.017L375.319 551.069M325.465 551.069L350.392 526.121M350.392 526.121L375.319 551.069M350.392 526.121V501M849.692 376.017V401M899.615 376.017V325.983M899.615 376.017V326.121M899.615 325.983L874.55 351.069M899.615 325.983V326.121M799.769 326.121L824.696 351.069M824.696 351.069L849.623 376.017L874.55 351.069M824.696 351.069L849.623 326.121M849.623 326.121L874.55 351.069M849.623 326.121V301M849.692 576.017L874.654 601L899.615 576.017M849.692 576.017V601M899.615 576.017V525.983M899.615 576.017L924.577 601L949.538 576.017M899.615 576.017V526.121M899.615 525.983L874.55 551.069M899.615 525.983V526.121M799.769 526.121L824.696 551.069M824.696 551.069L849.623 576.017L874.55 551.069M824.696 551.069L849.623 526.121M849.623 526.121L874.55 551.069M849.623 526.121V501M1149.23 376.017V401M1199.15 376.017V325.983M1199.15 376.017V326.121M1199.15 325.983L1174.09 351.069M1199.15 325.983V326.121M1099.31 326.121L1124.23 351.069M1124.23 351.069L1149.16 376.017L1174.09 351.069M1124.23 351.069L1149.16 326.121M1149.16 326.121L1174.09 351.069M1149.16 326.121V301M1149.23 576.017L1174.19 601L1199.15 576.017M1149.23 576.017V601M1199.15 576.017V525.983M1199.15 576.017L1224.12 601L1249.08 576.017M1199.15 576.017V526.121M1199.15 525.983L1174.09 551.069M1199.15 525.983V526.121M1099.31 526.121L1124.23 551.069M1124.23 551.069L1149.16 576.017L1174.09 551.069M1124.23 551.069L1149.16 526.121M1149.16 526.121L1174.09 551.069M1149.16 526.121V501M350.462 176.018V201M400.385 176.018V125.983M400.385 176.018V126.121M400.385 125.983L375.319 151.07M400.385 125.983V126.121M300.538 126.121L325.465 151.07M325.465 151.07L350.392 176.018L375.319 151.07M325.465 151.07L350.392 126.121M350.392 126.121L375.319 151.07M350.392 126.121V101M849.692 176.018V201M899.615 176.018V125.983M899.615 176.018V126.121M899.615 125.983L874.55 151.07M899.615 125.983V126.121M799.769 126.121L824.696 151.07M824.696 151.07L849.623 176.018L874.55 151.07M824.696 151.07L849.623 126.121M849.623 126.121L874.55 151.07M849.623 126.121V101M1149.23 176.018V201M1199.15 176.018V125.983M1199.15 176.018V126.121M1199.15 125.983L1174.09 151.07M1199.15 125.983V126.121M1099.31 126.121L1124.23 151.07M1124.23 151.07L1149.16 176.018L1174.09 151.07M1124.23 151.07L1149.16 126.121M1149.16 126.121L1174.09 151.07M1149.16 126.121V101M450.308 376.017V401M400.385 326.121L425.312 351.069M425.312 351.069L450.239 376.017L475.166 351.069M425.312 351.069L450.239 326.121M450.239 326.121L475.166 351.069M450.239 326.121V301M450.308 576.017V601M400.385 526.121L425.312 551.069M425.312 551.069L450.239 576.017L475.166 551.069M425.312 551.069L450.239 526.121M450.239 526.121L475.166 551.069M450.239 526.121V501M949.538 376.017V401M899.615 326.121L924.542 351.069M924.542 351.069L949.469 376.017L974.396 351.069M924.542 351.069L949.469 326.121M949.469 326.121L974.396 351.069M949.469 326.121V301M949.538 576.017V601M899.615 526.121L924.542 551.069M924.542 551.069L949.469 576.017L974.396 551.069M924.542 551.069L949.469 526.121M949.469 526.121L974.396 551.069M949.469 526.121V501M1249.08 376.017V401M1299 325.983L1273.93 351.069M1199.15 326.121L1224.08 351.069M1224.08 351.069L1249.01 376.017L1273.93 351.069M1224.08 351.069L1249.01 326.121M1249.01 326.121L1273.93 351.069M1249.01 326.121V301M1249.08 576.017L1274.04 601L1299 576.017V525.983M1249.08 576.017V601M1299 525.983L1273.93 551.069M1199.15 526.121L1224.08 551.069M1224.08 551.069L1249.01 576.017L1273.93 551.069M1224.08 551.069L1249.01 526.121M1249.01 526.121L1273.93 551.069M1249.01 526.121V501M450.308 176.018V201M400.385 126.121L425.312 151.07M425.312 151.07L450.239 176.018L475.166 151.07M425.312 151.07L450.239 126.121M450.239 126.121L475.166 151.07M450.239 126.121V101M949.538 176.018V201M899.615 126.121L924.542 151.07M924.542 151.07L949.469 176.018L974.396 151.07M924.542 151.07L949.469 126.121M949.469 126.121L974.396 151.07M949.469 126.121V101M1249.08 176.018V201M1299 125.983L1273.93 151.07M1199.15 126.121L1224.08 151.07M1224.08 151.07L1249.01 176.018L1273.93 151.07M1224.08 151.07L1249.01 126.121M1249.01 126.121L1273.93 151.07M1249.01 126.121V101" stroke="url(#paint0_radial_2122_2376)" stroke-opacity="0.15" stroke-linecap="square" style="mix-blend-mode:multiply"/>
<defs>
<radialGradient id="paint0_radial_2122_2376" cx="0" cy="0" r="1" gradientUnits="userSpaceOnUse" gradientTransform="translate(650 301) scale(772.133 772.785)">
<stop stop-color="#D7A888" stop-opacity="0"/>
<stop offset="1" stop-color="#D7A888"/>
</radialGradient>
</defs>
</svg>
