<svg width="16" height="18" viewBox="0 0 16 18" fill="none" xmlns="http://www.w3.org/2000/svg">
<path d="M0.800781 16.8V12.576M0.800781 12.576V8.85602C0.800781 7.8619 1.60667 7.05602 2.60078 7.05602V7.05602M0.800781 12.576H15.2008M15.2008 12.576V16.8M15.2008 12.576V8.85602C15.2008 7.8619 14.3949 7.05602 13.4008 7.05602V7.05602M4.40078 9.00001V8.05602C4.40078 7.50373 3.95307 7.05602 3.40078 7.05602H2.60078M11.6008 9.00001V8.05602C11.6008 7.50373 12.0485 7.05602 12.6008 7.05602H13.4008M2.60078 7.05602V3.20001C2.60078 2.09544 3.49621 1.20001 4.60078 1.20001H11.4008C12.5053 1.20001 13.4008 2.09544 13.4008 3.20001V7.05602" stroke="#BA794D" stroke-linecap="round" stroke-linejoin="round"/>
</svg>
