<svg width="30" height="30" viewBox="0 0 30 30" fill="none" xmlns="http://www.w3.org/2000/svg">
<path d="M1.37866 4.22859C1.37866 3.12402 2.27409 2.22859 3.37866 2.22859H9.37866C10.4832 2.22859 11.3787 3.12402 11.3787 4.22859V10.2286C11.3787 11.3332 10.4832 12.2286 9.37866 12.2286H3.37866C2.27409 12.2286 1.37866 11.3332 1.37866 10.2286V4.22859Z" stroke="#D7A888" stroke-width="2"/>
<path d="M1.37866 23.2286C1.37866 20.4672 3.61724 18.2286 6.37866 18.2286C9.14009 18.2286 11.3787 20.4672 11.3787 23.2286C11.3787 25.99 9.14009 28.2286 6.37866 28.2286C3.61724 28.2286 1.37866 25.99 1.37866 23.2286Z" stroke="#D7A888" stroke-width="2"/>
<path d="M21.75 2.35727C22.531 1.57622 23.7974 1.57622 24.5784 2.35727L28.0355 5.81438C28.8166 6.59543 28.8166 7.86175 28.0355 8.6428L24.5784 12.0999C23.7974 12.881 22.531 12.881 21.75 12.0999L18.2929 8.6428C17.5118 7.86175 17.5118 6.59542 18.2929 5.81438L21.75 2.35727Z" stroke="#D7A888" stroke-width="2"/>
<path d="M21.2031 18.0827C21.9041 17.5734 22.8533 17.5734 23.5542 18.0827L26.9094 20.5204C27.6104 21.0297 27.9037 21.9324 27.636 22.7565L26.3544 26.7007C26.0867 27.5248 25.3187 28.0827 24.4523 28.0827H20.305C19.4386 28.0827 18.6707 27.5248 18.4029 26.7007L17.1214 22.7565C16.8536 21.9324 17.1469 21.0297 17.8479 20.5204L21.2031 18.0827Z" stroke="#D7A888" stroke-width="2"/>
</svg>
