<svg width="24" height="25" viewBox="0 0 24 25" fill="none" xmlns="http://www.w3.org/2000/svg">
<path d="M12.5824 14.0406C12.1386 14.1748 11.662 14.1507 11.234 13.9726C10.9607 13.8592 10.7158 13.6867 10.5171 13.4673C10.3185 13.248 10.1709 12.9874 10.085 12.7041C9.9992 12.4209 9.97721 12.1222 10.0207 11.8295C10.0641 11.5367 10.172 11.2573 10.3364 11.0112C10.5008 10.7652 10.7177 10.5586 10.9716 10.4065C11.2254 10.2543 11.5098 10.1603 11.8043 10.1313C12.0988 10.1022 12.3961 10.1388 12.6748 10.2385C12.9534 10.3381 13.2065 10.4983 13.4158 10.7075C13.7442 11.0348 13.9488 11.4659 13.9946 11.9272C14.0404 12.3885 13.9247 12.8514 13.6671 13.2369C13.4095 13.6224 13.0261 13.9064 12.5824 14.0406Z" fill="#16223B"/>
<path fill-rule="evenodd" clip-rule="evenodd" d="M12.0004 7.20404C13.6024 7.20404 13.7922 7.21004 14.4249 7.23895C15.0102 7.26568 15.3277 7.36331 15.5393 7.44568C15.7999 7.54179 16.0356 7.69499 16.2293 7.89404C16.4393 8.10404 16.5686 8.30422 16.6777 8.58404C16.76 8.79568 16.8577 9.11313 16.8844 9.6984C16.9133 10.3311 16.9193 10.5209 16.9193 12.1229C16.9193 13.7249 16.9133 13.9148 16.8844 14.5475C16.8577 15.1328 16.76 15.4502 16.6777 15.6619C16.5817 15.922 16.4284 16.1582 16.2293 16.3519C16.0193 16.5619 15.8191 16.6911 15.5393 16.8002C15.3277 16.8826 15.0102 16.9802 14.4249 17.007C13.7922 17.0359 13.6029 17.0419 12.0004 17.0419C10.3978 17.0419 10.2086 17.0359 9.57585 17.007C8.99057 16.9802 8.67312 16.8826 8.46148 16.8002C8.2013 16.7042 7.96512 16.551 7.77148 16.3519C7.57239 16.1582 7.41912 15.922 7.32312 15.6619C7.24075 15.4502 7.14312 15.1328 7.11639 14.5475C7.08748 13.9148 7.08148 13.7249 7.08148 12.1229C7.08148 10.5209 7.08748 10.3311 7.11639 9.6984C7.14312 9.11313 7.24075 8.79568 7.32312 8.58404C7.41922 8.32347 7.57242 8.0877 7.77148 7.89404C7.98148 7.68404 8.18166 7.55477 8.46148 7.44568C8.67312 7.36331 8.99057 7.26568 9.57585 7.23895C10.2086 7.21004 10.3984 7.20404 12.0004 7.20404ZM10.8202 9.27369C10.446 9.42868 10.106 9.65585 9.81966 9.94222C9.2413 10.5206 8.91638 11.305 8.91638 12.1229C8.91638 12.9409 9.2413 13.7253 9.81966 14.3037C10.398 14.882 11.1825 15.207 12.0004 15.207C12.8183 15.207 13.6028 14.882 14.1811 14.3037C14.4675 14.0173 14.6947 13.6773 14.8496 13.3032C15.0046 12.929 15.0844 12.5279 15.0844 12.1229C15.0844 11.718 15.0046 11.3169 14.8496 10.9427C14.6947 10.5686 14.4675 10.2286 14.1811 9.94222C13.8947 9.65585 13.5548 9.42868 13.1806 9.27369C12.8064 9.11871 12.4054 9.03894 12.0004 9.03894C11.5954 9.03894 11.1944 9.11871 10.8202 9.27369ZM15.9355 9.26148C15.8962 9.35078 15.8394 9.43128 15.7684 9.49822C15.6304 9.62842 15.4471 9.6997 15.2573 9.69693C15.0676 9.69417 14.8865 9.61757 14.7523 9.48341C14.6181 9.34925 14.5415 9.16808 14.5388 8.97837C14.536 8.78865 14.6073 8.60533 14.7375 8.46731C14.8044 8.39635 14.8849 8.33953 14.9742 8.30024C15.0635 8.26094 15.1598 8.23996 15.2573 8.23854C15.3549 8.23712 15.4517 8.25528 15.5421 8.29196C15.6325 8.32864 15.7147 8.38308 15.7836 8.45206C15.8526 8.52105 15.9071 8.60317 15.9437 8.69357C15.9804 8.78398 15.9986 8.88082 15.9972 8.97837C15.9957 9.07591 15.9748 9.17219 15.9355 9.26148Z" fill="#16223B"/>
<path fill-rule="evenodd" clip-rule="evenodd" d="M2.40039 12.1229C2.40039 6.82095 6.69839 2.52295 12.0004 2.52295C17.3024 2.52295 21.6004 6.82095 21.6004 12.1229C21.6004 17.4249 17.3024 21.7229 12.0004 21.7229C6.69839 21.7229 2.40039 17.4249 2.40039 12.1229ZM12.0004 6.12295C10.3706 6.12295 10.1666 6.12949 9.52675 6.15895C8.88857 6.1884 8.45166 6.28986 8.06985 6.43768C7.66974 6.58846 7.30732 6.82468 7.00785 7.12986C6.70246 7.42948 6.46606 7.79208 6.31512 8.1924C6.1673 8.57422 6.0653 9.01059 6.03639 9.64986C6.00748 10.2891 6.00039 10.4931 6.00039 12.1229C6.00039 13.7522 6.00694 13.9562 6.03639 14.5971C6.06585 15.2353 6.1673 15.6717 6.31512 16.0535C6.46584 16.4538 6.70205 16.8164 7.0073 17.116C7.3072 17.4211 7.66998 17.6571 8.07039 17.8077C8.45221 17.956 8.88857 18.058 9.52675 18.087C10.1666 18.1159 10.3706 18.1229 12.0004 18.1229C13.6302 18.1229 13.8342 18.1164 14.4746 18.087C15.1128 18.0575 15.5491 17.956 15.9309 17.8077C16.3308 17.6571 16.6935 17.4215 16.9935 17.116C17.2985 16.8161 17.5346 16.4534 17.6851 16.053C17.8335 15.6711 17.9355 15.2348 17.9644 14.5966C17.9933 13.9568 18.0004 13.7528 18.0004 12.1229C18.0004 10.4937 17.9938 10.2897 17.9644 9.64877C17.9349 9.01059 17.8335 8.57422 17.6851 8.1924C17.5346 7.79204 17.2989 7.42986 16.9935 7.1304C16.6935 6.82495 16.3308 6.58877 15.9309 6.43768C15.5491 6.28986 15.1128 6.18786 14.4735 6.15895C13.8342 6.13004 13.6302 6.12295 12.0004 6.12295Z" fill="#16223B"/>
</svg>
