<svg width="24" height="25" viewBox="0 0 24 25" fill="none" xmlns="http://www.w3.org/2000/svg">
<path d="M12.0616 4.9231H12.1684C13.1548 4.9267 18.1528 4.9627 19.5004 5.3251C19.9078 5.4357 20.279 5.65128 20.577 5.95031C20.875 6.24933 21.0892 6.62132 21.1984 7.0291C21.3196 7.4851 21.4048 8.0887 21.4624 8.7115L21.4744 8.8363L21.5008 9.1483L21.5104 9.2731C21.5884 10.3699 21.598 11.3971 21.5992 11.6215V11.7115C21.598 11.9443 21.5872 13.0411 21.5008 14.1835L21.4912 14.3095L21.4804 14.4343C21.4204 15.1207 21.3316 15.8023 21.1984 16.3039C21.0896 16.7118 20.8754 17.084 20.5774 17.3831C20.2794 17.6822 19.9079 17.8976 19.5004 18.0079C18.1084 18.3823 12.8176 18.4087 12.0844 18.4099H11.914C11.5432 18.4099 10.0096 18.4027 8.40159 18.3475L8.19759 18.3403L8.09319 18.3355L7.88799 18.3271L7.68279 18.3187C6.35079 18.2599 5.08239 18.1651 4.49799 18.0067C4.09058 17.8965 3.71927 17.6812 3.42126 17.3824C3.12325 17.0835 2.90901 16.7116 2.79999 16.3039C2.66679 15.8035 2.57799 15.1207 2.51799 14.4343L2.50839 14.3083L2.49879 14.1835C2.43957 13.3704 2.40675 12.5555 2.40039 11.7403L2.40039 11.5927C2.40279 11.3347 2.41239 10.4431 2.47719 9.4591L2.48559 9.3355L2.48919 9.2731L2.49879 9.1483L2.52519 8.8363L2.53719 8.7115C2.59479 8.0887 2.67999 7.4839 2.80119 7.0291C2.91002 6.62115 3.12419 6.24899 3.42221 5.94991C3.72023 5.65084 4.09163 5.43537 4.49919 5.3251C5.08359 5.1691 6.35199 5.0731 7.68399 5.0131L7.88799 5.0047L8.09439 4.9975L8.19759 4.9939L8.40279 4.9855C9.54484 4.94875 10.6874 4.92834 11.83 4.9243H12.0616V4.9231ZM10.0804 8.7751V14.5567L15.0688 11.6671L10.0804 8.7751Z" fill="#16223B"/>
</svg>
