<svg width="24" height="25" viewBox="0 0 24 25" fill="none" xmlns="http://www.w3.org/2000/svg">
<path d="M12.0004 2.52295C6.69839 2.52295 2.40039 6.82095 2.40039 12.1229C2.40039 17.4249 6.69839 21.7229 12.0004 21.7229C17.3024 21.7229 21.6004 17.4249 21.6004 12.1229C21.6004 6.82095 17.3024 2.52295 12.0004 2.52295ZM9.65039 16.1019H7.70639V9.84595H9.65039V16.1019ZM8.66639 9.07795C8.05239 9.07795 7.65539 8.64295 7.65539 8.10495C7.65539 7.55595 8.06439 7.13395 8.69139 7.13395C9.31839 7.13395 9.70239 7.55595 9.71439 8.10495C9.71439 8.64295 9.31839 9.07795 8.66639 9.07795ZM16.7504 16.1019H14.8064V12.6349C14.8064 11.8279 14.5244 11.2799 13.8214 11.2799C13.2844 11.2799 12.9654 11.6509 12.8244 12.0079C12.7724 12.1349 12.7594 12.3149 12.7594 12.4939V16.1009H10.8144V11.841C10.8144 11.0599 10.7894 10.4069 10.7634 9.84495H12.4524L12.5414 10.7139H12.5804C12.8364 10.3059 13.4634 9.70395 14.5124 9.70395C15.7914 9.70395 16.7504 10.5609 16.7504 12.4029V16.1019Z" fill="#16223B"/>
</svg>
