<svg width="50" height="50" viewBox="0 0 50 50" fill="none" xmlns="http://www.w3.org/2000/svg">
<rect width="50" height="50" rx="25" fill="#16223B"/>
<path d="M34.5978 29.7749V32.6653C34.5989 32.9336 34.5439 33.1992 34.4362 33.4451C34.3284 33.6909 34.1705 33.9116 33.9724 34.093C33.7742 34.2744 33.5404 34.4125 33.2857 34.4985C33.031 34.5844 32.7611 34.6164 32.4933 34.5922C29.5227 34.2701 26.6693 33.257 24.1622 31.6344C21.8297 30.1552 19.8521 28.1815 18.37 25.8536C16.7385 23.3402 15.7231 20.4785 15.4063 17.5005C15.3821 17.234 15.4139 16.9655 15.4994 16.712C15.585 16.4585 15.7225 16.2255 15.9032 16.0279C16.0839 15.8304 16.3039 15.6725 16.5491 15.5644C16.7943 15.4563 17.0593 15.4004 17.3274 15.4001H20.2235C20.692 15.3955 21.1462 15.5611 21.5014 15.866C21.8566 16.1709 22.0886 16.5943 22.1542 17.0573C22.2765 17.9822 22.5031 18.8905 22.83 19.7646C22.9599 20.1094 22.988 20.4842 22.911 20.8445C22.834 21.2048 22.6551 21.5355 22.3956 21.7975L21.1695 23.0211C22.5438 25.4331 24.5449 27.4303 26.9618 28.8018L28.1878 27.5782C28.4503 27.3192 28.7816 27.1407 29.1426 27.0638C29.5037 26.987 29.8792 27.015 30.2247 27.1447C31.1006 27.4709 32.0106 27.6971 32.9374 27.8191C33.4063 27.8851 33.8346 28.1209 34.1408 28.4815C34.4469 28.8421 34.6096 29.3024 34.5978 29.7749Z" stroke="#D7A888" stroke-width="1.5" stroke-linecap="round" stroke-linejoin="round"/>
</svg>
