<svg width="20" height="15" viewBox="0 0 20 15" fill="none" xmlns="http://www.w3.org/2000/svg">
<path d="M10.0616 0.922852H10.1684C11.1548 0.926452 16.1528 0.962452 17.5004 1.32485C17.9078 1.43545 18.279 1.65104 18.577 1.95006C18.875 2.24908 19.0892 2.62107 19.1984 3.02885C19.3196 3.48485 19.4048 4.08845 19.4624 4.71125L19.4744 4.83605L19.5008 5.14805L19.5104 5.27285C19.5884 6.36965 19.598 7.39685 19.5992 7.62125V7.71125C19.598 7.94405 19.5872 9.04085 19.5008 10.1833L19.4912 10.3093L19.4804 10.4341C19.4204 11.1205 19.3316 11.8021 19.1984 12.3037C19.0896 12.7116 18.8754 13.0838 18.5774 13.3828C18.2794 13.6819 17.9079 13.8974 17.5004 14.0077C16.1084 14.3821 10.8176 14.4085 10.0844 14.4097H9.91399C9.54319 14.4097 8.00959 14.4025 6.40159 14.3473L6.19759 14.3401L6.09319 14.3353L5.88799 14.3269L5.68279 14.3185C4.35079 14.2597 3.08239 14.1649 2.49799 14.0065C2.09058 13.8963 1.71927 13.681 1.42126 13.3821C1.12325 13.0833 0.909007 12.7114 0.799991 12.3037C0.666791 11.8033 0.577991 11.1205 0.517991 10.4341L0.508391 10.3081L0.498791 10.1833C0.439568 9.37013 0.40675 8.5553 0.400391 7.74005L0.400391 7.59245C0.402791 7.33445 0.412391 6.44285 0.477191 5.45885L0.485591 5.33525L0.489191 5.27285L0.498791 5.14805L0.525191 4.83605L0.537191 4.71125C0.594791 4.08845 0.679991 3.48365 0.801191 3.02885C0.910023 2.62091 1.12419 2.24874 1.42221 1.94967C1.72023 1.6506 2.09163 1.43512 2.49919 1.32485C3.08359 1.16885 4.35199 1.07285 5.68399 1.01285L5.88799 1.00445L6.09439 0.997252L6.19759 0.993652L6.40279 0.985252C7.54484 0.948501 8.68736 0.928099 9.82999 0.924052H10.0616V0.922852ZM8.08039 4.77485V10.5565L13.0688 7.66685L8.08039 4.77485Z" fill="#16223B"/>
</svg>
