<svg width="164" height="64" viewBox="0 0 164 64" fill="none" xmlns="http://www.w3.org/2000/svg">
<path d="M61.2767 3.3584H68.574C69.317 3.3584 70.004 3.46355 70.6348 3.67384C71.2658 3.87012 71.8056 4.15051 72.2542 4.51503C72.7028 4.87954 73.0533 5.32116 73.3056 5.83989C73.558 6.34461 73.6841 6.89839 73.6841 7.50124C73.6841 8.10409 73.5299 8.67189 73.2215 9.20464C72.9271 9.72337 72.5205 10.165 72.0018 10.5295C72.6467 10.88 73.1655 11.3356 73.558 11.8965C73.9506 12.4572 74.1469 13.0741 74.1469 13.747C74.1469 15.0369 73.6631 16.0814 72.6957 16.8804C71.7285 17.6796 70.4736 18.0791 68.9315 18.0791H61.2767V3.3584ZM68.3426 6.32358H64.8938V9.22567H68.3426C68.8614 9.22567 69.2749 9.09248 69.5834 8.8261C69.9059 8.55973 70.0671 8.20923 70.0671 7.77462C70.0671 7.34001 69.9059 6.98952 69.5834 6.72315C69.2749 6.45677 68.8614 6.32358 68.3426 6.32358ZM68.6581 15.114C69.2189 15.114 69.6605 14.9738 69.983 14.6934C70.3194 14.413 70.4876 14.0345 70.4876 13.5578C70.4876 13.0811 70.3194 12.7025 69.983 12.4222C69.6605 12.1418 69.2189 12.0016 68.6581 12.0016H64.8938V15.114H68.6581Z" fill="white"/>
<path d="M78.4904 18.246V18.225L74.2214 6.95312H77.9857L80.4462 13.956L83.3062 6.95312H86.9864L82.0024 18.6457C81.3855 20.0897 80.6705 21.1131 79.8573 21.7159C79.0442 22.3188 77.9717 22.6202 76.6398 22.6202C76.3735 22.6202 76.1141 22.6062 75.8617 22.5781C75.6094 22.5641 75.3991 22.5361 75.2309 22.494V19.5919C75.3851 19.6199 75.5393 19.641 75.6935 19.655C75.8617 19.6691 76.0579 19.6761 76.2823 19.6761C76.815 19.6761 77.2707 19.5569 77.6492 19.3185C78.0277 19.0802 78.3082 18.7228 78.4904 18.246Z" fill="white"/>
<path d="M89.7638 14.6934V9.79347H87.5136V6.95447H89.7638V4.09444L93.1705 3.3584V6.95447H96.2829V9.79347H93.1705V14.0205C93.1705 14.5111 93.2758 14.8616 93.4861 15.072C93.7104 15.2682 94.0959 15.3663 94.6427 15.3663C94.909 15.3663 95.1614 15.3523 95.3998 15.3243C95.6381 15.2822 95.8974 15.2191 96.1778 15.135V17.8899C95.8694 17.988 95.4769 18.0651 95.0001 18.1212C94.5235 18.1914 94.1239 18.2264 93.8015 18.2264C92.4696 18.2264 91.4602 17.9319 90.7732 17.3431C90.1003 16.7402 89.7638 15.857 89.7638 14.6934Z" fill="white"/>
<path d="M107.602 16.6066C106.901 17.1953 106.179 17.623 105.436 17.8894C104.707 18.1557 103.88 18.2889 102.955 18.2889C102.114 18.2889 101.322 18.1417 100.578 17.8473C99.8351 17.5528 99.1902 17.1463 98.6434 16.6276C98.1106 16.1088 97.6831 15.499 97.3605 14.798C97.0521 14.083 96.8979 13.3259 96.8979 12.5268C96.8979 11.7277 97.0451 10.9776 97.3395 10.2766C97.648 9.56159 98.0616 8.94472 98.5802 8.42599C99.099 7.90726 99.7089 7.50069 100.409 7.20627C101.124 6.91185 101.889 6.76465 102.702 6.76465C103.516 6.76465 104.266 6.91886 104.952 7.2273C105.639 7.53574 106.228 7.95633 106.719 8.48908C107.223 9.02183 107.616 9.66674 107.896 10.4238C108.177 11.1668 108.317 11.973 108.317 12.8422V13.6834H100.388C100.613 14.2021 100.963 14.6298 101.441 14.9662C101.917 15.2886 102.478 15.4498 103.123 15.4498C103.586 15.4498 104.006 15.3798 104.385 15.2396C104.763 15.0854 105.086 14.8751 105.352 14.6087L107.602 16.6066ZM102.639 9.54056C102.079 9.54056 101.595 9.69478 101.187 10.0032C100.781 10.3117 100.494 10.7463 100.325 11.3071H104.973C104.791 10.7743 104.49 10.3467 104.069 10.0242C103.663 9.70179 103.186 9.54056 102.639 9.54056Z" fill="white"/>
<path d="M108.939 16.8374L110.559 14.5451C111.26 14.9657 111.898 15.2741 112.473 15.4704C113.048 15.6526 113.616 15.7437 114.176 15.7437C114.737 15.7437 115.179 15.6666 115.501 15.5124C115.838 15.3442 116.006 15.1269 116.006 14.8606C116.006 14.6502 115.915 14.482 115.732 14.3558C115.55 14.2156 115.263 14.1175 114.87 14.0614L112.662 13.725C111.569 13.5567 110.727 13.1922 110.138 12.6314C109.549 12.0566 109.255 11.3135 109.255 10.4022C109.255 9.28067 109.682 8.39743 110.538 7.75252C111.394 7.10761 112.564 6.78516 114.05 6.78516C114.849 6.78516 115.648 6.90433 116.447 7.14266C117.26 7.36698 118.01 7.69644 118.697 8.13105L117.078 10.3181C116.475 9.96765 115.901 9.71528 115.354 9.56107C114.807 9.39283 114.26 9.30871 113.714 9.30871C113.279 9.30871 112.929 9.38582 112.662 9.54003C112.396 9.68024 112.263 9.86951 112.263 10.1078C112.263 10.3321 112.361 10.5145 112.557 10.6546C112.753 10.7808 113.09 10.8789 113.567 10.949L115.774 11.2855C116.868 11.4397 117.709 11.8043 118.298 12.379C118.901 12.9398 119.202 13.6549 119.202 14.524C119.202 15.0568 119.076 15.5545 118.823 16.0172C118.571 16.4798 118.221 16.8794 117.772 17.2159C117.338 17.5523 116.812 17.8187 116.195 18.015C115.578 18.1973 114.912 18.2884 114.197 18.2884C113.146 18.2884 112.165 18.1692 111.253 17.9309C110.355 17.6785 109.584 17.314 108.939 16.8374Z" fill="white"/>
<path d="M60.4355 31.9133V28.7168H73.6841V31.9133H68.8684V43.4376H65.2512V31.9133H60.4355Z" fill="white"/>
<path d="M82.3723 41.9659C81.6712 42.5547 80.9492 42.9823 80.2062 43.2488C79.4772 43.5151 78.65 43.6483 77.7246 43.6483C76.8834 43.6483 76.0914 43.5011 75.3483 43.2067C74.6052 42.9122 73.9604 42.5057 73.4136 41.987C72.8809 41.4682 72.4532 40.8583 72.1308 40.1574C71.8224 39.4423 71.6682 38.6853 71.6682 37.8862C71.6682 37.0871 71.8154 36.337 72.1098 35.636C72.4182 34.921 72.8318 34.3041 73.3505 33.7854C73.8693 33.2666 74.4791 32.8601 75.1801 32.5657C75.895 32.2712 76.6591 32.124 77.4723 32.124C78.2855 32.124 79.0355 32.2782 79.7225 32.5867C80.4095 32.8951 80.9983 33.3157 81.489 33.8485C81.9937 34.3812 82.3863 35.0261 82.6666 35.7832C82.947 36.5262 83.0872 37.3324 83.0872 38.2016V39.0428H75.1591C75.3834 39.5615 75.7338 39.9892 76.2106 40.3256C76.6872 40.648 77.248 40.8092 77.8929 40.8092C78.3556 40.8092 78.7761 40.7392 79.1547 40.599C79.5332 40.4448 79.8557 40.2345 80.122 39.9681L82.3723 41.9659ZM77.4092 34.9C76.8484 34.9 76.3648 35.0542 75.9582 35.3626C75.5516 35.6711 75.2642 36.1057 75.096 36.6665H79.7435C79.5613 36.1337 79.2599 35.7061 78.8392 35.3836C78.4327 35.0612 77.956 34.9 77.4092 34.9Z" fill="white"/>
<path d="M90.124 40.7036C90.5866 40.7036 91.0141 40.6055 91.4067 40.4092C91.7993 40.213 92.1778 39.9116 92.5423 39.5049L94.5612 41.6079C94.0004 42.2528 93.3135 42.7575 92.5003 43.1221C91.6871 43.4726 90.8389 43.6478 89.9556 43.6478C89.1285 43.6478 88.3504 43.5006 87.6214 43.2062C86.9063 42.9118 86.2825 42.5052 85.7497 41.9865C85.231 41.4677 84.8175 40.8579 84.509 40.1569C84.2146 39.4559 84.0674 38.6989 84.0674 37.8857C84.0674 37.0725 84.2146 36.3154 84.509 35.6145C84.8175 34.8995 85.231 34.2896 85.7497 33.7849C86.2825 33.2661 86.9063 32.8596 87.6214 32.5652C88.3504 32.2568 89.1285 32.1025 89.9556 32.1025C90.8669 32.1025 91.7362 32.2848 92.5634 32.6493C93.3906 33.0138 94.0915 33.5186 94.6663 34.1634L92.5844 36.3295C92.1918 35.8949 91.7923 35.5725 91.3857 35.3621C90.9791 35.1518 90.5305 35.0467 90.0397 35.0467C89.3108 35.0467 88.6939 35.32 88.1892 35.8668C87.6985 36.4136 87.4531 37.0866 87.4531 37.8857C87.4531 38.6849 87.7055 39.3577 88.2102 39.9046C88.7289 40.4373 89.3669 40.7036 90.124 40.7036Z" fill="white"/>
<path d="M95.6981 43.4372V28.7164L99.1049 27.9805V33.0696C99.5115 32.7612 99.9671 32.5228 100.471 32.3546C100.991 32.1864 101.531 32.1023 102.092 32.1023C103.395 32.1023 104.461 32.5228 105.288 33.364C106.115 34.2053 106.528 35.2778 106.528 36.5816V43.4372H103.122V37.0442C103.122 36.4414 102.933 35.9577 102.554 35.5932C102.19 35.2146 101.706 35.0253 101.103 35.0253C100.668 35.0253 100.282 35.1024 99.9461 35.2567C99.6097 35.4109 99.3293 35.6282 99.1049 35.9086V43.4372H95.6981Z" fill="white"/>
<path d="M108.344 43.4375V32.3129H111.75V33.0699C112.158 32.7615 112.613 32.5231 113.118 32.3549C113.637 32.1866 114.176 32.1025 114.737 32.1025C116.041 32.1025 117.106 32.5231 117.933 33.3643C118.76 34.2055 119.174 35.278 119.174 36.5819V43.4375H115.767V37.0445C115.767 36.4416 115.578 35.958 115.2 35.5935C114.835 35.2149 114.352 35.0256 113.749 35.0256C113.314 35.0256 112.929 35.1027 112.592 35.2569C112.256 35.4111 111.975 35.6285 111.75 35.9089V43.4375H108.344Z" fill="white"/>
<path d="M120.485 37.8857C120.485 37.0866 120.639 36.3365 120.947 35.6355C121.27 34.9205 121.697 34.3036 122.231 33.7849C122.778 33.2661 123.415 32.8596 124.144 32.5652C124.887 32.2568 125.679 32.1025 126.52 32.1025C127.362 32.1025 128.147 32.2568 128.876 32.5652C129.619 32.8596 130.256 33.2661 130.789 33.7849C131.336 34.3036 131.763 34.9205 132.072 35.6355C132.394 36.3365 132.555 37.0866 132.555 37.8857C132.555 38.6849 132.394 39.4418 132.072 40.1569C131.763 40.8579 131.336 41.4677 130.789 41.9865C130.256 42.5052 129.619 42.9118 128.876 43.2062C128.147 43.5006 127.362 43.6478 126.52 43.6478C125.679 43.6478 124.887 43.5006 124.144 43.2062C123.415 42.9118 122.778 42.5052 122.231 41.9865C121.697 41.4677 121.27 40.8579 120.947 40.1569C120.639 39.4418 120.485 38.6849 120.485 37.8857ZM126.52 40.7036C127.277 40.7036 127.915 40.4302 128.434 39.8835C128.967 39.3367 129.233 38.6708 129.233 37.8857C129.233 37.0866 128.967 36.4136 128.434 35.8668C127.915 35.32 127.277 35.0467 126.52 35.0467C125.763 35.0467 125.119 35.32 124.586 35.8668C124.067 36.4136 123.808 37.0866 123.808 37.8857C123.808 38.6708 124.067 39.3367 124.586 39.8835C125.119 40.4302 125.763 40.7036 126.52 40.7036Z" fill="white"/>
<path d="M137.35 27.9805V43.4372H133.944V28.7164L137.35 27.9805Z" fill="white"/>
<path d="M142.79 43.6268C141.613 43.6268 140.646 43.3043 139.889 42.6594C139.132 42.0145 138.753 41.1873 138.753 40.1779C138.753 39.1264 139.153 38.3063 139.952 37.7175C140.765 37.1286 141.893 36.8342 143.337 36.8342C143.773 36.8342 144.2 36.8623 144.621 36.9183C145.041 36.9744 145.455 37.0515 145.861 37.1496V36.6029C145.861 36.0421 145.679 35.6285 145.315 35.3621C144.964 35.0817 144.439 34.9415 143.738 34.9415C143.302 34.9415 142.811 35.0116 142.265 35.1518C141.718 35.292 141.087 35.5164 140.372 35.8248L139.153 33.3223C140.05 32.9157 140.926 32.6143 141.781 32.418C142.65 32.2076 143.505 32.1025 144.348 32.1025C145.89 32.1025 147.088 32.4741 147.943 33.2171C148.798 33.9461 149.226 34.9766 149.226 36.3084V43.4375H145.861V42.7645C145.413 43.073 144.936 43.2973 144.432 43.4375C143.941 43.5637 143.393 43.6268 142.79 43.6268ZM141.991 40.1148C141.991 40.4653 142.146 40.7387 142.454 40.935C142.762 41.1313 143.19 41.2294 143.738 41.2294C144.144 41.2294 144.523 41.1873 144.873 41.1032C145.238 41.0191 145.567 40.8859 145.861 40.7036V39.2736C145.539 39.1895 145.21 39.1264 144.873 39.0844C144.537 39.0423 144.193 39.0213 143.843 39.0213C143.253 39.0213 142.797 39.1194 142.475 39.3157C142.153 39.4979 141.991 39.7644 141.991 40.1148Z" fill="white"/>
<path d="M163.069 37.8854C163.069 38.6846 162.915 39.4345 162.607 40.1356C162.312 40.8226 161.906 41.4254 161.387 41.9441C160.868 42.4488 160.251 42.8484 159.537 43.1428C158.836 43.4372 158.086 43.5844 157.287 43.5844C156.768 43.5844 156.263 43.5213 155.773 43.3951C155.282 43.255 154.826 43.0587 154.405 42.8064V43.4372H151.04V28.7164L154.447 27.9805V33.0906C154.882 32.7822 155.345 32.5509 155.836 32.3967C156.34 32.2425 156.859 32.1654 157.392 32.1654C158.177 32.1654 158.913 32.3126 159.6 32.607C160.301 32.9013 160.903 33.308 161.408 33.8267C161.927 34.3454 162.333 34.9552 162.628 35.6563C162.922 36.3433 163.069 37.0863 163.069 37.8854ZM156.803 35.0674C156.326 35.0674 155.892 35.1445 155.499 35.2988C155.107 35.439 154.756 35.6563 154.447 35.9507V39.8412C154.742 40.1075 155.093 40.3178 155.499 40.472C155.906 40.6263 156.34 40.7034 156.803 40.7034C157.63 40.7034 158.324 40.437 158.885 39.9043C159.445 39.3574 159.726 38.6846 159.726 37.8854C159.726 37.0863 159.438 36.4204 158.864 35.8876C158.303 35.3409 157.616 35.0674 156.803 35.0674Z" fill="white"/>
<path fill-rule="evenodd" clip-rule="evenodd" d="M26.0998 9.18843L16.9654 0L7.72095 9.29915L12.4765 14.0828L0 17.4456L3.3837 30.1485L9.87986 28.3976L6.5368 40.9479L19.165 44.3516L20.9056 37.817L30.039 47.0044L39.2835 37.7052L34.5281 32.9218L47.0054 29.5588L43.6217 16.8559L37.1258 18.6068L40.4688 6.05652L27.8407 2.6528L26.0998 9.18843ZM10.1833 28.3158L22.5486 31.6487L20.9869 37.5118L30.039 28.4062L34.3072 32.6996L30.9935 20.2596L36.8223 18.6886L24.457 15.3556L26.0191 9.49092L16.9654 18.5983L12.6986 14.3062L16.0118 26.7448L10.1833 28.3158Z" fill="#DA3333"/>
<path d="M160.58 60.9883V63.8794H159.428V60.9883L156.95 56.7061H158.233L160.004 59.8363L161.787 56.7061H163.069L160.58 60.9883Z" fill="white"/>
<path d="M151.374 61.5539V56.7065H152.526V63.9994H152.135L147.765 59.0324V63.8799H146.613V56.5869H147.005L151.374 61.5539Z" fill="white"/>
<path d="M142.274 63.8799H141.035L140.524 62.6843H137.296L136.786 63.8799H135.557L138.72 56.5869H139.112L142.274 63.8799ZM137.709 61.6952H140.101L138.916 58.7281L137.709 61.6952Z" fill="white"/>
<path d="M130.166 56.7061C130.536 56.7061 130.869 56.7604 131.166 56.8691C131.47 56.9705 131.727 57.1191 131.938 57.3147C132.155 57.5103 132.322 57.7422 132.438 58.0103C132.554 58.2784 132.611 58.5755 132.611 58.9015C132.611 59.2276 132.554 59.5247 132.438 59.7928C132.322 60.0609 132.155 60.2927 131.938 60.4884C131.727 60.684 131.47 60.8362 131.166 60.9449C130.869 61.0536 130.536 61.1079 130.166 61.1079H128.71V63.8794H127.557V56.7061H130.166ZM128.71 57.7277V60.0862H130.155C130.568 60.0862 130.883 59.9776 131.101 59.7602C131.318 59.5428 131.427 59.2602 131.427 58.9124C131.427 58.5646 131.318 58.282 131.101 58.0647C130.883 57.84 130.568 57.7277 130.155 57.7277H128.71Z" fill="white"/>
<path d="M122.557 63.8799H121.405V59.3802L119.34 62.0756H118.959L116.894 59.3693V63.8799H115.742V56.5869H116.133L119.144 60.5975L122.166 56.5869H122.557V63.8799Z" fill="white"/>
<path d="M107.391 56.5869C107.912 56.5869 108.402 56.6811 108.858 56.8695C109.315 57.0579 109.713 57.3187 110.054 57.6521C110.394 57.9854 110.662 58.3803 110.858 58.8367C111.061 59.286 111.162 59.7715 111.162 60.2932C111.162 60.8221 111.061 61.3148 110.858 61.7713C110.662 62.2206 110.394 62.6118 110.054 62.9451C109.713 63.2712 109.315 63.5284 108.858 63.7168C108.402 63.9052 107.912 63.9994 107.391 63.9994C106.869 63.9994 106.376 63.9052 105.913 63.7168C105.456 63.5284 105.058 63.2676 104.717 62.9343C104.384 62.601 104.119 62.2097 103.924 61.7604C103.728 61.304 103.63 60.8149 103.63 60.2932C103.63 59.7715 103.728 59.286 103.924 58.8367C104.119 58.3803 104.387 57.9854 104.728 57.6521C105.068 57.3187 105.467 57.0579 105.923 56.8695C106.38 56.6811 106.869 56.5869 107.391 56.5869ZM107.402 57.6412C107.032 57.6412 106.688 57.71 106.369 57.8477C106.058 57.9781 105.786 58.1593 105.554 58.3911C105.329 58.623 105.152 58.902 105.021 59.228C104.891 59.5541 104.826 59.9055 104.826 60.2823C104.826 60.6663 104.891 61.0214 105.021 61.3474C105.152 61.6735 105.329 61.9561 105.554 62.1952C105.786 62.4271 106.058 62.6118 106.369 62.7495C106.688 62.8799 107.032 62.9451 107.402 62.9451C107.771 62.9451 108.112 62.8799 108.423 62.7495C108.735 62.6118 109.007 62.4271 109.238 62.1952C109.47 61.9561 109.651 61.6735 109.782 61.3474C109.912 61.0214 109.978 60.6663 109.978 60.2823C109.978 59.9055 109.912 59.5577 109.782 59.2389C109.651 58.9128 109.47 58.6339 109.238 58.402C109.007 58.1629 108.735 57.9781 108.423 57.8477C108.112 57.71 107.771 57.6412 107.402 57.6412Z" fill="white"/>
<path d="M96.4673 56.5869C97.1411 56.5869 97.7425 56.7391 98.2715 57.0434C98.8077 57.3405 99.2315 57.739 99.5431 58.239L98.6736 58.8802C98.42 58.4889 98.1084 58.1846 97.7389 57.9672C97.3694 57.7499 96.9455 57.6412 96.4673 57.6412C96.0977 57.6412 95.7535 57.71 95.4347 57.8477C95.1232 57.9781 94.8514 58.1629 94.6196 58.402C94.3877 58.6339 94.2066 58.9128 94.0761 59.2389C93.9457 59.5577 93.8805 59.9091 93.8805 60.2932C93.8805 60.6772 93.9457 61.0322 94.0761 61.3583C94.2066 61.6771 94.3877 61.9561 94.6196 62.1952C94.8514 62.4271 95.1232 62.6118 95.4347 62.7495C95.7535 62.8799 96.0977 62.9451 96.4673 62.9451C96.9455 62.9451 97.3694 62.8365 97.7389 62.6191C98.1084 62.4017 98.42 62.0974 98.6736 61.7061L99.5431 62.3474C99.2388 62.8473 98.8185 63.2495 98.2823 63.5538C97.7461 63.8509 97.1411 63.9994 96.4673 63.9994C95.9383 63.9994 95.4456 63.9052 94.9891 63.7168C94.5326 63.5284 94.1341 63.2712 93.7935 62.9451C93.453 62.6118 93.1849 62.2206 92.9893 61.7713C92.7936 61.3148 92.6958 60.8221 92.6958 60.2932C92.6958 59.7715 92.7936 59.286 92.9893 58.8367C93.1849 58.3803 93.453 57.9854 93.7935 57.6521C94.1341 57.3187 94.5326 57.0579 94.9891 56.8695C95.4456 56.6811 95.9383 56.5869 96.4673 56.5869Z" fill="white"/>
<path d="M78.0869 56.8699C77.7848 56.7594 77.4459 56.7041 77.0701 56.7041H74.4176V57.743H75.5891H77.048C77.468 57.743 77.7885 57.8572 78.0096 58.0856C78.238 58.3067 78.3522 58.594 78.3522 58.9477C78.3522 59.3014 78.238 59.5887 78.0096 59.8098C77.7885 60.0308 77.468 60.1413 77.048 60.1413H75.5891H74.4176V61.1802V63.9986H75.5891V61.1802H76.9154L79.0043 63.9986H80.3416L78.1422 60.9924C78.5843 60.8229 78.9306 60.5613 79.1811 60.2077C79.4316 59.8466 79.5569 59.4229 79.5569 58.9366C79.5569 58.6051 79.4979 58.303 79.38 58.0304C79.2622 57.7577 79.0927 57.522 78.8716 57.323C78.658 57.1241 78.3964 56.973 78.0869 56.8699Z" fill="white"/>
<path d="M69.7308 63.8814H70.9701L67.8066 56.5869H67.4152L64.2518 63.8814H65.4802L67.6109 58.7285L69.7308 63.8814Z" fill="#E1251B"/>
<path d="M60.8043 57.7541H58.3507V63.9986H57.1792V57.7541H54.7256V56.7041H60.8043V57.7541Z" fill="white"/>
<path d="M48.8716 56.5869C49.3921 56.5869 49.8484 56.7081 50.2406 56.9506C50.6328 57.1859 50.9358 57.4854 51.1497 57.849L50.3583 58.4587C50.1729 58.1877 49.9554 57.9774 49.7058 57.8276C49.4563 57.6779 49.1782 57.603 48.8716 57.603C48.5863 57.603 48.3368 57.6743 48.1229 57.8169C47.9089 57.9524 47.802 58.1663 47.802 58.4587C47.802 58.5941 47.8269 58.7118 47.8769 58.8116C47.9268 58.9043 47.9945 58.9899 48.0801 59.0683C48.1656 59.1396 48.269 59.2074 48.3903 59.2715C48.5115 59.3286 48.6434 59.3927 48.786 59.4641L49.5775 59.8277C49.8413 59.9489 50.0802 60.0773 50.2941 60.2128C50.508 60.3482 50.6863 60.498 50.8289 60.662C50.9715 60.8188 51.082 60.9935 51.1604 61.1861C51.2389 61.3786 51.2781 61.5961 51.2781 61.8385C51.2781 62.1522 51.2175 62.4375 51.0963 62.6941C50.975 62.9437 50.8075 63.1576 50.5936 63.3359C50.3797 63.507 50.1265 63.6425 49.8342 63.7423C49.549 63.835 49.2388 63.8814 48.9036 63.8814C48.3118 63.8814 47.7877 63.7459 47.3314 63.4749C46.875 63.1968 46.5114 62.8225 46.2404 62.3519L47.0426 61.7422C47.1424 61.892 47.2529 62.0346 47.3742 62.1701C47.5025 62.3055 47.6416 62.4268 47.7913 62.5337C47.941 62.6335 48.105 62.7155 48.2833 62.7797C48.4687 62.8368 48.6719 62.8653 48.8929 62.8653C49.2566 62.8653 49.549 62.7797 49.77 62.6086C49.9982 62.4303 50.1123 62.1879 50.1123 61.8813C50.1123 61.7458 50.0873 61.6281 50.0374 61.5283C49.9875 61.4214 49.9162 61.3287 49.8235 61.2502C49.7308 61.1718 49.6203 61.1005 49.4919 61.0363C49.3707 60.965 49.2316 60.8937 49.0748 60.8224L48.294 60.4588C48.0658 60.3518 47.8519 60.2377 47.6522 60.1165C47.4526 59.9953 47.2779 59.8562 47.1282 59.6994C46.9784 59.5425 46.8608 59.3678 46.7752 59.1753C46.6896 58.9756 46.6469 58.751 46.6469 58.5014C46.6469 58.2091 46.7039 57.9453 46.818 57.71C46.9392 57.4747 47.0996 57.275 47.2993 57.111C47.5061 56.9399 47.7414 56.8115 48.0052 56.726C48.2762 56.6333 48.5649 56.5869 48.8716 56.5869Z" fill="white"/>
<path d="M40.3503 60.285L42.7929 63.9986H41.4556L39.6872 61.2908L37.9299 63.9986H36.5815L39.0462 60.285L36.7363 56.7041H38.0846L39.6872 59.2903L41.2898 56.7041H42.6271L40.3503 60.285Z" fill="white"/>
<path d="M33.1342 62.9473H28.3374V63.9972H33.1342V62.9473Z" fill="white"/>
<path d="M31.8859 59.7676H28.3371V60.7844H31.8859V59.7676Z" fill="white"/>
<path d="M28.3375 57.7521H33.1342V56.7021H28.3375V57.7521Z" fill="white"/>
<path d="M23.7558 61.4748V56.7046H24.8895V63.8814H24.5045L20.2048 58.9934V63.7637H19.071V56.5869H19.4561L23.7558 61.4748Z" fill="white"/>
<path d="M6.7169 63.8799H5.47786L4.96703 62.6843H1.739L1.22817 63.8799H0L3.16281 56.5869H3.55409L6.7169 63.8799ZM2.15202 61.6952H4.54315L3.35845 58.7281L2.15202 61.6952Z" fill="white"/>
</svg>
